<svg width="46" height="45" viewBox="0 0 46 45" fill="none" xmlns="http://www.w3.org/2000/svg">
<path d="M22.5432 6.25642e-07C28.5099 1.04019e-07 34.1249 2.30833 38.3682 6.50833C42.6399 10.7367 45.0082 16.375 45.0399 22.385C45.0699 28.395 42.7599 34.0567 38.5315 38.3283C34.3049 42.6 28.6665 44.9683 22.6565 45L22.4349 45C16.4599 44.97 10.8515 42.6283 6.63153 38.41C2.41153 34.1917 0.0715287 28.5817 0.0415282 22.615C0.0115276 16.605 2.32153 10.9433 6.54986 6.67167C10.7782 2.4 16.4165 0.0316678 22.4249 6.35987e-07C22.4649 6.3249e-07 22.5049 6.28993e-07 22.5432 6.25642e-07ZM20.8732 13.1233L20.8732 4.28333C18.4632 6.58167 16.6065 9.26667 15.3165 12.1583C17.1365 12.6817 18.9999 13.0033 20.8732 13.1217L20.8732 13.1233ZM29.7765 12.155C28.8282 10.0433 27.5765 8.05167 26.0415 6.235C25.4665 5.555 24.8532 4.90167 24.2065 4.28333L24.2065 13.1217C26.0849 13.0017 27.9532 12.68 29.7765 12.155ZM36.3615 9.22C36.2499 9.105 36.1382 8.99 36.0249 8.87833C33.9582 6.83333 31.5115 5.315 28.8432 4.38833C30.5232 6.43167 31.8882 8.66333 32.9249 11.025C34.1032 10.515 35.2515 9.91333 36.3615 9.22ZM12.1715 11.0317C13.1949 8.68 14.5482 6.445 16.2232 4.40333C13.3532 5.40833 10.7932 7.07667 8.72819 9.225C9.83986 9.91834 10.9915 10.52 12.1715 11.0317ZM41.6365 20.8333C41.3582 17.585 40.2699 14.505 38.4699 11.83C37.0599 12.7367 35.5899 13.5133 34.0799 14.1567C34.7332 16.315 35.1265 18.5533 35.2482 20.8333L41.6365 20.8333ZM11.0232 14.1667C9.5082 13.5233 8.03653 12.7467 6.62153 11.8383C4.8632 14.455 3.73153 17.5267 3.44653 20.835L9.85153 20.835C9.97653 18.5783 10.3682 16.34 11.0232 14.1683L11.0232 14.1667ZM31.9082 20.8333C31.7949 18.9417 31.4682 17.085 30.9365 15.2883C28.7365 15.9417 26.4765 16.3333 24.2065 16.4617L24.2065 20.8333L31.9082 20.8333ZM20.8732 16.4617C18.6082 16.3333 16.3565 15.945 14.1632 15.295C13.6315 17.1017 13.3065 18.96 13.1882 20.8333L20.8732 20.8333L20.8732 16.4617ZM9.86153 24.1667L3.44486 24.1667C3.7232 27.4133 4.81153 30.495 6.61153 33.17C8.0432 32.2483 9.5382 31.4617 11.0732 30.8133C10.4015 28.6417 9.9982 26.4083 9.86153 24.1667ZM20.8732 24.1667L13.1999 24.1667C13.3299 26.0283 13.6665 27.8833 14.2149 29.69C16.3915 29.05 18.6265 28.665 20.8732 28.5383L20.8732 24.1667ZM31.8899 24.1667L24.2082 24.1667L24.2082 28.5383C26.4565 28.665 28.6949 29.05 30.8749 29.6933C31.3815 28.02 31.7149 26.28 31.8649 24.4983C31.8749 24.3883 31.8832 24.2783 31.8899 24.1683L31.8899 24.1667ZM41.6365 24.1667L35.2315 24.1667C35.2182 24.37 35.2032 24.5733 35.1865 24.7767C35.0115 26.8517 34.6182 28.8733 34.0182 30.8167C35.5515 31.465 37.0415 32.25 38.4715 33.17C40.2732 30.4933 41.3599 27.4133 41.6382 24.1667L41.6365 24.1667ZM20.8732 40.5017L20.8732 31.8767C19.0265 31.995 17.1915 32.3083 15.3982 32.8167C16.3232 34.84 17.5349 36.77 19.0382 38.55C19.6132 39.23 20.2265 39.8833 20.8732 40.5L20.8732 40.5017ZM29.6932 32.82C27.8965 32.3083 26.0565 31.995 24.2082 31.8767L24.2082 40.5033C26.5349 38.2867 28.3865 35.6833 29.6932 32.82ZM16.4865 40.695C14.7182 38.6 13.3082 36.3233 12.2465 33.9367C11.0365 34.455 9.8582 35.07 8.71987 35.78C8.8082 35.8717 8.8982 35.9633 8.9882 36.0533C11.1299 38.195 13.6915 39.7683 16.4865 40.695ZM36.3615 35.78C35.2265 35.0717 34.0515 34.4583 32.8465 33.9417C31.7665 36.3733 30.3432 38.6433 28.6065 40.6933C31.4282 39.755 34.0099 38.16 36.1632 35.985C36.2299 35.9167 36.2965 35.85 36.3615 35.7817L36.3615 35.78Z" fill="white"/>
</svg>
