<svg width="195" height="575" viewBox="0 0 195 575" fill="none" xmlns="http://www.w3.org/2000/svg">
<path d="M192.692 40.9334L192.692 3L154.759 3L154.759 40.9334L192.692 40.9334Z" fill="black" stroke="black" stroke-width="4.49723" stroke-miterlimit="10"/>
<path d="M192.68 230.602L192.68 192.669L154.746 192.669L154.746 230.602L192.68 230.602Z" stroke="black" stroke-width="4.49723" stroke-miterlimit="10"/>
<path d="M192.68 420.255L192.68 382.321L154.746 382.321L154.746 420.255L192.68 420.255Z" fill="black" stroke="black" stroke-width="4.49723" stroke-miterlimit="10"/>
<path d="M192.692 78.8689L192.692 40.9355L154.759 40.9355L154.759 78.8689L192.692 78.8689Z" stroke="black" stroke-width="4.49723" stroke-miterlimit="10"/>
<path d="M192.68 268.536L192.68 230.603L154.746 230.603L154.746 268.536L192.68 268.536Z" fill="black" stroke="black" stroke-width="4.49723" stroke-miterlimit="10"/>
<path d="M192.68 458.188L192.68 420.255L154.746 420.255L154.746 458.188L192.68 458.188Z" stroke="black" stroke-width="4.49723" stroke-miterlimit="10"/>
<path d="M192.692 116.809L192.692 78.876L154.759 78.876L154.759 116.809L192.692 116.809Z" fill="black" stroke="black" stroke-width="4.49723" stroke-miterlimit="10"/>
<path d="M192.68 306.473L192.68 268.54L154.746 268.54L154.746 306.473L192.68 306.473Z" stroke="black" stroke-width="4.49723" stroke-miterlimit="10"/>
<path d="M192.68 496.129L192.68 458.195L154.746 458.195L154.746 496.129L192.68 496.129Z" fill="black" stroke="black" stroke-width="4.49723" stroke-miterlimit="10"/>
<path d="M192.692 154.742L192.692 116.809L154.759 116.809L154.759 154.742L192.692 154.742Z" stroke="black" stroke-width="4.49723" stroke-miterlimit="10"/>
<path d="M192.68 344.407L192.68 306.474L154.746 306.474L154.746 344.407L192.68 344.407Z" fill="black" stroke="black" stroke-width="4.49723" stroke-miterlimit="10"/>
<path d="M192.68 534.061L192.68 496.128L154.746 496.128L154.746 534.061L192.68 534.061Z" stroke="black" stroke-width="4.49723" stroke-miterlimit="10"/>
<path d="M192.692 192.681L192.692 154.748L154.759 154.748L154.759 192.681L192.692 192.681Z" fill="black" stroke="black" stroke-width="4.49723" stroke-miterlimit="10"/>
<path d="M192.68 382.345L192.68 344.412L154.746 344.412L154.746 382.345L192.68 382.345Z" stroke="black" stroke-width="4.49723" stroke-miterlimit="10"/>
<path d="M192.68 572L192.68 534.066L154.746 534.066L154.746 572L192.68 572Z" fill="black" stroke="black" stroke-width="4.49723" stroke-miterlimit="10"/>
<path d="M154.759 40.9334L154.759 3L116.825 3L116.825 40.9334L154.759 40.9334Z" stroke="black" stroke-width="4.49723" stroke-miterlimit="10"/>
<path d="M154.746 230.602L154.746 192.669L116.813 192.669L116.813 230.602L154.746 230.602Z" fill="black" stroke="black" stroke-width="4.49723" stroke-miterlimit="10"/>
<path d="M154.746 420.255L154.746 382.321L116.813 382.321L116.813 420.255L154.746 420.255Z" stroke="black" stroke-width="4.49723" stroke-miterlimit="10"/>
<path d="M154.759 78.8689L154.759 40.9355L116.825 40.9355L116.825 78.8689L154.759 78.8689Z" fill="black" stroke="black" stroke-width="4.49723" stroke-miterlimit="10"/>
<path d="M154.746 268.536L154.746 230.603L116.813 230.603L116.813 268.536L154.746 268.536Z" stroke="black" stroke-width="4.49723" stroke-miterlimit="10"/>
<path d="M154.746 458.188L154.746 420.255L116.813 420.255L116.813 458.188L154.746 458.188Z" fill="black" stroke="black" stroke-width="4.49723" stroke-miterlimit="10"/>
<path d="M154.759 116.809L154.759 78.876L116.825 78.876L116.825 116.809L154.759 116.809Z" stroke="black" stroke-width="4.49723" stroke-miterlimit="10"/>
<path d="M154.746 306.473L154.746 268.54L116.813 268.54L116.813 306.473L154.746 306.473Z" fill="black" stroke="black" stroke-width="4.49723" stroke-miterlimit="10"/>
<path d="M154.746 496.129L154.746 458.195L116.813 458.195L116.813 496.129L154.746 496.129Z" stroke="black" stroke-width="4.49723" stroke-miterlimit="10"/>
<path d="M154.759 154.742L154.759 116.809L116.825 116.809L116.825 154.742L154.759 154.742Z" fill="black" stroke="black" stroke-width="4.49723" stroke-miterlimit="10"/>
<path d="M154.746 344.406L154.746 306.473L116.813 306.473L116.813 344.406L154.746 344.406Z" stroke="black" stroke-width="4.49723" stroke-miterlimit="10"/>
<path d="M154.746 534.06L154.746 496.127L116.813 496.127L116.813 534.06L154.746 534.06Z" fill="black" stroke="black" stroke-width="4.49723" stroke-miterlimit="10"/>
<path d="M154.759 192.681L154.759 154.748L116.825 154.748L116.825 192.681L154.759 192.681Z" stroke="black" stroke-width="4.49723" stroke-miterlimit="10"/>
<path d="M154.746 382.345L154.746 344.412L116.813 344.412L116.813 382.345L154.746 382.345Z" fill="black" stroke="black" stroke-width="4.49723" stroke-miterlimit="10"/>
<path d="M154.746 572L154.746 534.066L116.813 534.066L116.813 572L154.746 572Z" stroke="black" stroke-width="4.49723" stroke-miterlimit="10"/>
<path d="M116.819 40.9334L116.819 3L78.8853 3L78.8853 40.9334L116.819 40.9334Z" fill="black" stroke="black" stroke-width="4.49723" stroke-miterlimit="10"/>
<path d="M116.806 230.602L116.806 192.669L78.8731 192.669L78.8731 230.602L116.806 230.602Z" stroke="black" stroke-width="4.49723" stroke-miterlimit="10"/>
<path d="M116.806 420.255L116.806 382.321L78.8731 382.321L78.8731 420.255L116.806 420.255Z" fill="black" stroke="black" stroke-width="4.49723" stroke-miterlimit="10"/>
<path d="M116.819 78.8689L116.819 40.9355L78.8853 40.9355L78.8853 78.8689L116.819 78.8689Z" stroke="black" stroke-width="4.49723" stroke-miterlimit="10"/>
<path d="M116.806 268.536L116.806 230.603L78.8731 230.603L78.8731 268.536L116.806 268.536Z" fill="black" stroke="black" stroke-width="4.49723" stroke-miterlimit="10"/>
<path d="M116.806 458.188L116.806 420.255L78.8731 420.255L78.8731 458.188L116.806 458.188Z" stroke="black" stroke-width="4.49723" stroke-miterlimit="10"/>
<path d="M116.819 116.809L116.819 78.876L78.8853 78.876L78.8853 116.809L116.819 116.809Z" fill="black" stroke="black" stroke-width="4.49723" stroke-miterlimit="10"/>
<path d="M116.806 306.473L116.806 268.54L78.8731 268.54L78.8731 306.473L116.806 306.473Z" stroke="black" stroke-width="4.49723" stroke-miterlimit="10"/>
<path d="M116.806 496.129L116.806 458.195L78.8731 458.195L78.8731 496.129L116.806 496.129Z" fill="black" stroke="black" stroke-width="4.49723" stroke-miterlimit="10"/>
<path d="M116.819 154.742L116.819 116.809L78.8853 116.809L78.8853 154.742L116.819 154.742Z" stroke="black" stroke-width="4.49723" stroke-miterlimit="10"/>
<path d="M116.806 344.406L116.806 306.473L78.8731 306.473L78.8731 344.406L116.806 344.406Z" fill="black" stroke="black" stroke-width="4.49723" stroke-miterlimit="10"/>
<path d="M116.806 534.06L116.806 496.127L78.8731 496.127L78.8731 534.06L116.806 534.06Z" stroke="black" stroke-width="4.49723" stroke-miterlimit="10"/>
<path d="M116.819 192.681L116.819 154.748L78.8853 154.748L78.8853 192.681L116.819 192.681Z" fill="black" stroke="black" stroke-width="4.49723" stroke-miterlimit="10"/>
<path d="M116.806 382.345L116.806 344.412L78.8731 344.412L78.8731 382.345L116.806 382.345Z" stroke="black" stroke-width="4.49723" stroke-miterlimit="10"/>
<path d="M116.806 572L116.806 534.066L78.8731 534.066L78.8731 572L116.806 572Z" fill="black" stroke="black" stroke-width="4.49723" stroke-miterlimit="10"/>
<path d="M78.8854 40.9334L78.8854 3L40.952 3L40.952 40.9334L78.8854 40.9334Z" stroke="black" stroke-width="4.49723" stroke-miterlimit="10"/>
<path d="M78.8733 230.602L78.8733 192.669L40.9399 192.669L40.9399 230.602L78.8733 230.602Z" fill="black" stroke="black" stroke-width="4.49723" stroke-miterlimit="10"/>
<path d="M78.8733 420.255L78.8733 382.321L40.9399 382.321L40.9399 420.255L78.8733 420.255Z" stroke="black" stroke-width="4.49723" stroke-miterlimit="10"/>
<path d="M78.8865 78.8689L78.8865 40.9355L40.9531 40.9355L40.9531 78.8689L78.8865 78.8689Z" fill="black" stroke="black" stroke-width="4.49723" stroke-miterlimit="10"/>
<path d="M78.8738 268.536L78.8738 230.603L40.9405 230.603L40.9405 268.536L78.8738 268.536Z" stroke="black" stroke-width="4.49723" stroke-miterlimit="10"/>
<path d="M78.8738 458.188L78.8738 420.255L40.9405 420.255L40.9405 458.188L78.8738 458.188Z" fill="black" stroke="black" stroke-width="4.49723" stroke-miterlimit="10"/>
<path d="M78.8865 116.809L78.8865 78.876L40.9531 78.876L40.9531 116.809L78.8865 116.809Z" stroke="black" stroke-width="4.49723" stroke-miterlimit="10"/>
<path d="M78.8738 306.473L78.8738 268.54L40.9405 268.54L40.9405 306.473L78.8738 306.473Z" fill="black" stroke="black" stroke-width="4.49723" stroke-miterlimit="10"/>
<path d="M78.8738 496.129L78.8738 458.195L40.9405 458.195L40.9405 496.129L78.8738 496.129Z" stroke="black" stroke-width="4.49723" stroke-miterlimit="10"/>
<path d="M78.8854 154.742L78.8854 116.809L40.952 116.809L40.952 154.742L78.8854 154.742Z" fill="black" stroke="black" stroke-width="4.49723" stroke-miterlimit="10"/>
<path d="M78.8733 344.407L78.8733 306.474L40.9399 306.474L40.9399 344.407L78.8733 344.407Z" stroke="black" stroke-width="4.49723" stroke-miterlimit="10"/>
<path d="M78.8733 534.061L78.8733 496.128L40.9399 496.128L40.9399 534.061L78.8733 534.061Z" fill="black" stroke="black" stroke-width="4.49723" stroke-miterlimit="10"/>
<path d="M78.8865 192.681L78.8865 154.748L40.9531 154.748L40.9531 192.681L78.8865 192.681Z" stroke="black" stroke-width="4.49723" stroke-miterlimit="10"/>
<path d="M78.8738 382.345L78.8738 344.412L40.9405 344.412L40.9405 382.345L78.8738 382.345Z" fill="black" stroke="black" stroke-width="4.49723" stroke-miterlimit="10"/>
<path d="M78.8738 572L78.8738 534.066L40.9405 534.066L40.9405 572L78.8738 572Z" stroke="black" stroke-width="4.49723" stroke-miterlimit="10"/>
<path d="M40.9465 40.9334L40.9465 3L3.0131 3L3.0131 40.9334L40.9465 40.9334Z" fill="black" stroke="black" stroke-width="4.49723" stroke-miterlimit="10"/>
<path d="M40.9338 230.602L40.9338 192.669L3.0004 192.669L3.0004 230.602L40.9338 230.602Z" stroke="black" stroke-width="4.49723" stroke-miterlimit="10"/>
<path d="M40.9338 420.255L40.9338 382.321L3.0004 382.321L3.0004 420.255L40.9338 420.255Z" fill="black" stroke="black" stroke-width="4.49723" stroke-miterlimit="10"/>
<path d="M40.9465 78.8689L40.9465 40.9355L3.0131 40.9355L3.0131 78.8689L40.9465 78.8689Z" stroke="black" stroke-width="4.49723" stroke-miterlimit="10"/>
<path d="M40.9338 268.536L40.9338 230.603L3.0004 230.603L3.0004 268.536L40.9338 268.536Z" fill="black" stroke="black" stroke-width="4.49723" stroke-miterlimit="10"/>
<path d="M40.9338 458.188L40.9338 420.255L3.0004 420.255L3.0004 458.188L40.9338 458.188Z" stroke="black" stroke-width="4.49723" stroke-miterlimit="10"/>
<path d="M40.9465 116.809L40.9465 78.876L3.0131 78.876L3.0131 116.809L40.9465 116.809Z" fill="black" stroke="black" stroke-width="4.49723" stroke-miterlimit="10"/>
<path d="M40.9338 306.473L40.9338 268.54L3.0004 268.54L3.0004 306.473L40.9338 306.473Z" stroke="black" stroke-width="4.49723" stroke-miterlimit="10"/>
<path d="M40.9338 496.129L40.9338 458.195L3.0004 458.195L3.0004 496.129L40.9338 496.129Z" fill="black" stroke="black" stroke-width="4.49723" stroke-miterlimit="10"/>
<path d="M40.9465 154.742L40.9465 116.809L3.0131 116.809L3.0131 154.742L40.9465 154.742Z" stroke="black" stroke-width="4.49723" stroke-miterlimit="10"/>
<path d="M40.9338 344.406L40.9338 306.473L3.0004 306.473L3.0004 344.406L40.9338 344.406Z" fill="black" stroke="black" stroke-width="4.49723" stroke-miterlimit="10"/>
<path d="M40.9338 534.06L40.9338 496.127L3.0004 496.127L3.0004 534.06L40.9338 534.06Z" stroke="black" stroke-width="4.49723" stroke-miterlimit="10"/>
<path d="M40.9465 192.681L40.9465 154.748L3.0131 154.748L3.0131 192.681L40.9465 192.681Z" fill="black" stroke="black" stroke-width="4.49723" stroke-miterlimit="10"/>
<path d="M40.9338 382.345L40.9338 344.412L3.0004 344.412L3.0004 382.345L40.9338 382.345Z" stroke="black" stroke-width="4.49723" stroke-miterlimit="10"/>
<path d="M40.9338 572L40.9338 534.066L3.0004 534.066L3.0004 572L40.9338 572Z" fill="black" stroke="black" stroke-width="4.49723" stroke-miterlimit="10"/>
</svg>
