<svg width="249" height="64" viewBox="0 0 249 64" fill="none" xmlns="http://www.w3.org/2000/svg">
<rect width="248.862" height="63.3086" rx="31.6543" fill="black"/>
<path d="M32.9072 56.7762C26.2451 56.7762 19.9757 54.1988 15.2377 49.5093C10.4682 44.7881 7.82383 38.4926 7.78847 31.7821C7.75497 25.0716 10.3342 18.7501 15.0554 13.9805C19.7747 9.21098 26.0702 6.56661 32.7807 6.53125H33.0282C39.6996 6.56475 45.9616 9.17934 50.6734 13.8893C55.3853 18.5993 57.998 24.8632 58.0315 31.5253C58.065 38.2358 55.4858 44.5573 50.7646 49.3269C46.0435 54.0964 39.748 56.7408 33.0393 56.7762C32.9947 56.7762 32.95 56.7762 32.9072 56.7762ZM34.7719 42.1233V51.9936C37.4627 49.4274 39.5358 46.4294 40.9762 43.2007C38.944 42.6164 36.8635 42.2572 34.7719 42.1251V42.1233ZM24.8308 43.2045C25.8897 45.5622 27.2872 47.786 29.0011 49.8144C29.6432 50.5737 30.328 51.3032 31.05 51.9936V42.1251C28.9527 42.2591 26.8667 42.6183 24.8308 43.2045ZM17.4783 46.4815C17.603 46.6099 17.7277 46.7383 17.8542 46.863C20.1617 49.1464 22.8936 50.8417 25.8729 51.8764C23.9971 49.5949 22.473 47.1031 21.3155 44.4662C19.9998 45.0356 18.7177 45.7074 17.4783 46.4815ZM44.4877 44.4587C43.3451 47.0845 41.8341 49.58 39.9638 51.8596C43.1683 50.7375 46.0267 48.8747 48.3324 46.476C47.0912 45.7018 45.8053 45.03 44.4877 44.4587ZM11.5885 33.5146C11.8992 37.1416 13.1144 40.5806 15.1242 43.5673C16.6986 42.555 18.3399 41.6878 20.0259 40.9695C19.2964 38.5596 18.8572 36.0604 18.7214 33.5146H11.5885ZM45.7699 40.9583C47.4615 41.6766 49.1047 42.5438 50.6846 43.558C52.6479 40.6364 53.9115 37.2067 54.2297 33.5128H47.0781C46.9386 36.0325 46.5013 38.5317 45.7699 40.9565V40.9583ZM22.4507 33.5146C22.5772 35.6268 22.942 37.6998 23.5356 39.7059C25.992 38.9764 28.5154 38.5391 31.05 38.3958V33.5146H22.4507ZM34.7719 38.3958C37.3008 38.5391 39.815 38.9727 42.2639 39.6985C42.8576 37.6812 43.2204 35.6063 43.3526 33.5146H34.7719V38.3958ZM47.067 29.7928H54.2315C53.9208 26.1677 52.7056 22.7269 50.6958 19.7401C49.0972 20.7692 47.428 21.6475 45.7141 22.3714C46.464 24.7962 46.9144 27.2898 47.067 29.7928ZM34.7719 29.7928H43.3395C43.1944 27.7141 42.8185 25.6429 42.2062 23.6257C39.7759 24.3403 37.2804 24.7702 34.7719 24.9116V29.7928ZM22.4712 29.7928H31.0482V24.9116C28.5378 24.7702 26.0385 24.3403 23.6045 23.622C23.0387 25.4903 22.6666 27.4331 22.4991 29.4225C22.4879 29.5453 22.4786 29.6681 22.4712 29.7909V29.7928ZM11.5885 29.7928H18.74C18.7549 29.5658 18.7716 29.3387 18.7902 29.1117C18.9856 26.7948 19.4248 24.5375 20.0948 22.3677C18.3827 21.6438 16.719 20.7673 15.1224 19.7401C13.1107 22.7287 11.8974 26.1677 11.5866 29.7928H11.5885ZM34.7719 11.5539V21.1842C36.8338 21.052 38.8826 20.7022 40.885 20.1346C39.8522 17.8754 38.4993 15.7205 36.8207 13.733C36.1787 12.9738 35.4939 12.2443 34.7719 11.5557V11.5539ZM24.9239 20.1309C26.9299 20.7022 28.9844 21.052 31.0482 21.1842V11.552C28.4503 14.027 26.3828 16.9338 24.9239 20.1309ZM39.6698 11.338C41.6442 13.6772 43.2186 16.2192 44.404 18.8841C45.755 18.3053 47.0707 17.6186 48.3417 16.8259C48.2431 16.7235 48.1426 16.6212 48.0421 16.5207C45.6508 14.1294 42.7906 12.3727 39.6698 11.338ZM17.4783 16.8259C18.7456 17.6168 20.0575 18.3016 21.403 18.8785C22.6089 16.1634 24.1981 13.6288 26.1372 11.3399C22.9866 12.3876 20.1041 14.1685 17.6997 16.597C17.6253 16.6733 17.5509 16.7477 17.4783 16.824V16.8259Z" fill="white"/>
<g clip-path="url(#clip0_65_93919)">
<rect x="32.9093" y="6.53125" width="50.2468" height="50.2449" rx="25.1225" fill="white"/>
<path d="M58.0339 6.53125C44.1812 6.53125 32.9096 17.7991 32.9096 31.6556C32.9096 45.512 44.1812 56.7762 58.0339 56.7762C71.8866 56.7762 83.1564 45.5083 83.1564 31.6556C83.1564 17.8029 71.8885 6.53125 58.0339 6.53125ZM58.0339 53.8098C45.8151 53.8098 35.874 43.8725 35.874 31.6556C35.874 19.4386 45.8169 9.4957 58.0339 9.4957C70.2509 9.4957 80.1919 19.4349 80.1919 31.6556C80.1919 43.8762 70.2527 53.8098 58.0339 53.8098Z" fill="white"/>
<path d="M58.034 9.49512C45.8152 9.49512 35.8742 19.4343 35.8742 31.655C35.8742 43.8757 45.8152 53.8093 58.034 53.8093C70.2529 53.8093 80.1921 43.872 80.1921 31.655C80.1921 19.438 70.2529 9.49512 58.034 9.49512ZM64.778 21.4757C67.2419 21.4757 69.2442 23.4781 69.2442 25.942C69.2442 28.4058 67.2419 30.4138 64.778 30.4138C62.3142 30.4138 60.3062 28.4114 60.3062 25.942C60.3062 23.4725 62.3123 21.4757 64.778 21.4757ZM51.2938 21.4757C53.7576 21.4757 55.76 23.4781 55.76 25.942C55.76 28.4058 53.7576 30.4138 51.2938 30.4138C48.8299 30.4138 46.822 28.4114 46.822 25.942C46.822 23.4725 48.8281 21.4757 51.2938 21.4757ZM58.034 45.8948C51.8241 45.8948 46.7736 40.8461 46.7736 34.6362H49.7381C49.7381 39.2122 53.4599 42.9285 58.034 42.9285C62.6082 42.9285 66.3263 39.2104 66.3263 34.6362H69.2908C69.2908 40.8461 64.2384 45.8948 58.0322 45.8948H58.034Z" fill="black"/>
</g>
<path d="M106.627 39.4811C106.29 39.4811 106.037 39.7342 106.037 40.0717V40.1561C106.037 40.4937 106.29 40.7468 106.627 40.7468H106.712C107.049 40.7468 107.302 40.4937 107.302 40.1561V40.0717C107.302 39.7342 107.049 39.4811 106.712 39.4811H106.627ZM103.505 40.0717C103.505 38.2575 104.898 36.9074 106.712 36.9074C108.526 36.9074 109.876 38.2575 109.876 40.0717C109.876 41.886 108.526 43.2783 106.712 43.2783C104.898 43.2783 103.505 41.9704 103.505 40.0717ZM106.627 35.2619C106.29 35.2619 106.037 35.515 106.037 35.8526V35.937C106.037 36.2745 106.29 36.5276 106.627 36.5276H106.712C107.049 36.5276 107.302 36.2745 107.302 35.937V35.8526C107.302 35.515 107.049 35.2619 106.712 35.2619H106.627ZM103.505 35.8526C103.505 34.0383 104.898 32.6882 106.712 32.6882C108.526 32.6882 109.876 34.0383 109.876 35.8526C109.876 37.6668 108.526 39.0591 106.712 39.0591C104.898 39.0591 103.505 37.7512 103.505 35.8526ZM106.627 31.0427C106.29 31.0427 106.037 31.2959 106.037 31.6334V31.7178C106.037 32.0553 106.29 32.3085 106.627 32.3085H106.712C107.049 32.3085 107.302 32.0553 107.302 31.7178V31.6334C107.302 31.2959 107.049 31.0427 106.712 31.0427H106.627ZM103.505 31.6334C103.505 29.8192 104.898 28.469 106.712 28.469C108.526 28.469 109.876 29.8192 109.876 31.6334C109.876 33.4476 108.526 34.84 106.712 34.84C104.898 34.84 103.505 33.532 103.505 31.6334ZM106.627 26.8236C106.29 26.8236 106.037 27.0767 106.037 27.4142V27.4986C106.037 27.8362 106.29 28.0893 106.627 28.0893H106.712C107.049 28.0893 107.302 27.8362 107.302 27.4986V27.4142C107.302 27.0767 107.049 26.8236 106.712 26.8236H106.627ZM103.505 27.4142C103.505 25.6 104.898 24.2499 106.712 24.2499C108.526 24.2499 109.876 25.6 109.876 27.4142C109.876 29.2285 108.526 30.6208 106.712 30.6208C104.898 30.6208 103.505 29.3129 103.505 27.4142ZM106.627 22.6044C106.29 22.6044 106.037 22.8575 106.037 23.1951V23.2795C106.037 23.617 106.29 23.8701 106.627 23.8701H106.712C107.049 23.8701 107.302 23.617 107.302 23.2795V23.1951C107.302 22.8575 107.049 22.6044 106.712 22.6044H106.627ZM103.505 23.1951C103.505 21.3808 104.898 20.0307 106.712 20.0307C108.526 20.0307 109.876 21.3808 109.876 23.1951C109.876 25.0093 108.526 26.4016 106.712 26.4016C104.898 26.4016 103.505 25.0937 103.505 23.1951ZM110.847 18.3852C110.509 18.3852 110.256 18.6384 110.256 18.9759V19.0603C110.256 19.3978 110.509 19.651 110.847 19.651H110.931C111.268 19.651 111.522 19.3978 111.522 19.0603V18.9759C111.522 18.6384 111.268 18.3852 110.931 18.3852H110.847ZM107.724 18.9759C107.724 17.1617 109.117 15.8115 110.931 15.8115C112.745 15.8115 114.095 17.1617 114.095 18.9759C114.095 20.7901 112.745 22.1825 110.931 22.1825C109.117 22.1825 107.724 20.8745 107.724 18.9759ZM106.627 43.7002C106.29 43.7002 106.037 43.9534 106.037 44.2909V44.3753C106.037 44.7128 106.29 44.966 106.627 44.966H106.712C107.049 44.966 107.302 44.7128 107.302 44.3753V44.2909C107.302 43.9534 107.049 43.7002 106.712 43.7002H106.627ZM103.505 44.2909C103.505 42.4767 104.898 41.1265 106.712 41.1265C108.526 41.1265 109.876 42.4767 109.876 44.2909C109.876 46.1052 108.526 47.4975 106.712 47.4975C104.898 47.4975 103.505 46.1895 103.505 44.2909ZM127.723 22.6044C127.386 22.6044 127.133 22.8575 127.133 23.1951V23.2795C127.133 23.617 127.386 23.8701 127.723 23.8701H127.808C128.145 23.8701 128.398 23.617 128.398 23.2795V23.1951C128.398 22.8575 128.145 22.6044 127.808 22.6044H127.723ZM124.601 23.1951C124.601 21.3808 125.993 20.0307 127.808 20.0307C129.622 20.0307 130.972 21.3808 130.972 23.1951C130.972 25.0093 129.622 26.4016 127.808 26.4016C125.993 26.4016 124.601 25.0937 124.601 23.1951ZM127.723 26.8236C127.386 26.8236 127.133 27.0767 127.133 27.4142V27.4986C127.133 27.8362 127.386 28.0893 127.723 28.0893H127.808C128.145 28.0893 128.398 27.8362 128.398 27.4986V27.4142C128.398 27.0767 128.145 26.8236 127.808 26.8236H127.723ZM124.601 27.4142C124.601 25.6 125.993 24.2499 127.808 24.2499C129.622 24.2499 130.972 25.6 130.972 27.4142C130.972 29.2285 129.622 30.6208 127.808 30.6208C125.993 30.6208 124.601 29.3129 124.601 27.4142ZM123.504 31.0427C123.167 31.0427 122.913 31.2959 122.913 31.6334V31.7178C122.913 32.0553 123.167 32.3085 123.504 32.3085H123.588C123.926 32.3085 124.179 32.0553 124.179 31.7178V31.6334C124.179 31.2959 123.926 31.0427 123.588 31.0427H123.504ZM120.382 31.6334C120.382 29.8192 121.774 28.469 123.588 28.469C125.403 28.469 126.753 29.8192 126.753 31.6334C126.753 33.4476 125.403 34.84 123.588 34.84C121.774 34.84 120.382 33.532 120.382 31.6334ZM115.066 18.3852C114.728 18.3852 114.475 18.6384 114.475 18.9759V19.0603C114.475 19.3978 114.728 19.651 115.066 19.651H115.15C115.488 19.651 115.741 19.3978 115.741 19.0603V18.9759C115.741 18.6384 115.488 18.3852 115.15 18.3852H115.066ZM111.944 18.9759C111.944 17.1617 113.336 15.8115 115.15 15.8115C116.964 15.8115 118.314 17.1617 118.314 18.9759C118.314 20.7901 116.964 22.1825 115.15 22.1825C113.336 22.1825 111.944 20.8745 111.944 18.9759ZM123.504 18.3852C123.167 18.3852 122.913 18.6384 122.913 18.9759V19.0603C122.913 19.3978 123.167 19.651 123.504 19.651H123.588C123.926 19.651 124.179 19.3978 124.179 19.0603V18.9759C124.179 18.6384 123.926 18.3852 123.588 18.3852H123.504ZM120.382 18.9759C120.382 17.1617 121.774 15.8115 123.588 15.8115C125.403 15.8115 126.753 17.1617 126.753 18.9759C126.753 20.7901 125.403 22.1825 123.588 22.1825C121.774 22.1825 120.382 20.8745 120.382 18.9759ZM115.066 31.0427C114.728 31.0427 114.475 31.2959 114.475 31.6334V31.7178C114.475 32.0553 114.728 32.3085 115.066 32.3085H115.15C115.488 32.3085 115.741 32.0553 115.741 31.7178V31.6334C115.741 31.2959 115.488 31.0427 115.15 31.0427H115.066ZM111.944 31.6334C111.944 29.8192 113.336 28.469 115.15 28.469C116.964 28.469 118.314 29.8192 118.314 31.6334C118.314 33.4476 116.964 34.84 115.15 34.84C113.336 34.84 111.944 33.532 111.944 31.6334ZM110.847 31.0427C110.509 31.0427 110.256 31.2959 110.256 31.6334V31.7178C110.256 32.0553 110.509 32.3085 110.847 32.3085H110.931C111.268 32.3085 111.522 32.0553 111.522 31.7178V31.6334C111.522 31.2959 111.268 31.0427 110.931 31.0427H110.847ZM107.724 31.6334C107.724 29.8192 109.117 28.469 110.931 28.469C112.745 28.469 114.095 29.8192 114.095 31.6334C114.095 33.4476 112.745 34.84 110.931 34.84C109.117 34.84 107.724 33.532 107.724 31.6334ZM106.627 18.3852C106.29 18.3852 106.037 18.6384 106.037 18.9759V19.0603C106.037 19.3978 106.29 19.651 106.627 19.651H106.712C107.049 19.651 107.302 19.3978 107.302 19.0603V18.9759C107.302 18.6384 107.049 18.3852 106.712 18.3852H106.627ZM103.505 18.9759C103.505 17.1617 104.898 15.8115 106.712 15.8115C108.526 15.8115 109.876 17.1617 109.876 18.9759C109.876 20.7901 108.526 22.1825 106.712 22.1825C104.898 22.1825 103.505 20.8745 103.505 18.9759ZM119.285 18.3852C118.947 18.3852 118.694 18.6384 118.694 18.9759V19.0603C118.694 19.3978 118.947 19.651 119.285 19.651H119.369C119.707 19.651 119.96 19.3978 119.96 19.0603V18.9759C119.96 18.6384 119.707 18.3852 119.369 18.3852H119.285ZM116.163 18.9759C116.163 17.1617 117.555 15.8115 119.369 15.8115C121.184 15.8115 122.534 17.1617 122.534 18.9759C122.534 20.7901 121.184 22.1825 119.369 22.1825C117.555 22.1825 116.163 20.8745 116.163 18.9759ZM119.285 31.0427C118.947 31.0427 118.694 31.2959 118.694 31.6334V31.7178C118.694 32.0553 118.947 32.3085 119.285 32.3085H119.369C119.707 32.3085 119.96 32.0553 119.96 31.7178V31.6334C119.96 31.2959 119.707 31.0427 119.369 31.0427H119.285ZM116.163 31.6334C116.163 29.8192 117.555 28.469 119.369 28.469C121.184 28.469 122.534 29.8192 122.534 31.6334C122.534 33.4476 121.184 34.84 119.369 34.84C117.555 34.84 116.163 33.532 116.163 31.6334Z" fill="white"/>
<path d="M137.241 39.4811C136.904 39.4811 136.65 39.7342 136.65 40.0717V40.1561C136.65 40.4937 136.904 40.7468 137.241 40.7468H137.325C137.663 40.7468 137.916 40.4937 137.916 40.1561V40.0717C137.916 39.7342 137.663 39.4811 137.325 39.4811H137.241ZM134.119 40.0717C134.119 38.2575 135.511 36.9074 137.325 36.9074C139.14 36.9074 140.49 38.2575 140.49 40.0717C140.49 41.886 139.14 43.2783 137.325 43.2783C135.511 43.2783 134.119 41.9704 134.119 40.0717ZM137.241 35.2619C136.904 35.2619 136.65 35.515 136.65 35.8526V35.937C136.65 36.2745 136.904 36.5276 137.241 36.5276H137.325C137.663 36.5276 137.916 36.2745 137.916 35.937V35.8526C137.916 35.515 137.663 35.2619 137.325 35.2619H137.241ZM134.119 35.8526C134.119 34.0383 135.511 32.6882 137.325 32.6882C139.14 32.6882 140.49 34.0383 140.49 35.8526C140.49 37.6668 139.14 39.0591 137.325 39.0591C135.511 39.0591 134.119 37.7512 134.119 35.8526ZM137.241 31.0427C136.904 31.0427 136.65 31.2959 136.65 31.6334V31.7178C136.65 32.0553 136.904 32.3085 137.241 32.3085H137.325C137.663 32.3085 137.916 32.0553 137.916 31.7178V31.6334C137.916 31.2959 137.663 31.0427 137.325 31.0427H137.241ZM134.119 31.6334C134.119 29.8192 135.511 28.469 137.325 28.469C139.14 28.469 140.49 29.8192 140.49 31.6334C140.49 33.4476 139.14 34.84 137.325 34.84C135.511 34.84 134.119 33.532 134.119 31.6334ZM137.241 26.8236C136.904 26.8236 136.65 27.0767 136.65 27.4142V27.4986C136.65 27.8362 136.904 28.0893 137.241 28.0893H137.325C137.663 28.0893 137.916 27.8362 137.916 27.4986V27.4142C137.916 27.0767 137.663 26.8236 137.325 26.8236H137.241ZM134.119 27.4142C134.119 25.6 135.511 24.2499 137.325 24.2499C139.14 24.2499 140.49 25.6 140.49 27.4142C140.49 29.2285 139.14 30.6208 137.325 30.6208C135.511 30.6208 134.119 29.3129 134.119 27.4142ZM137.241 22.6044C136.904 22.6044 136.65 22.8575 136.65 23.1951V23.2795C136.65 23.617 136.904 23.8701 137.241 23.8701H137.325C137.663 23.8701 137.916 23.617 137.916 23.2795V23.1951C137.916 22.8575 137.663 22.6044 137.325 22.6044H137.241ZM134.119 23.1951C134.119 21.3808 135.511 20.0307 137.325 20.0307C139.14 20.0307 140.49 21.3808 140.49 23.1951C140.49 25.0093 139.14 26.4016 137.325 26.4016C135.511 26.4016 134.119 25.0937 134.119 23.1951ZM137.241 18.3852C136.904 18.3852 136.65 18.6384 136.65 18.9759V19.0603C136.65 19.3978 136.904 19.651 137.241 19.651H137.325C137.663 19.651 137.916 19.3978 137.916 19.0603V18.9759C137.916 18.6384 137.663 18.3852 137.325 18.3852H137.241ZM134.119 18.9759C134.119 17.1617 135.511 15.8115 137.325 15.8115C139.14 15.8115 140.49 17.1617 140.49 18.9759C140.49 20.7901 139.14 22.1825 137.325 22.1825C135.511 22.1825 134.119 20.8745 134.119 18.9759ZM137.241 43.7002C136.904 43.7002 136.65 43.9534 136.65 44.2909V44.3753C136.65 44.7128 136.904 44.966 137.241 44.966H137.325C137.663 44.966 137.916 44.7128 137.916 44.3753V44.2909C137.916 43.9534 137.663 43.7002 137.325 43.7002H137.241ZM134.119 44.2909C134.119 42.4767 135.511 41.1265 137.325 41.1265C139.14 41.1265 140.49 42.4767 140.49 44.2909C140.49 46.1052 139.14 47.4975 137.325 47.4975C135.511 47.4975 134.119 46.1895 134.119 44.2909ZM141.46 43.7002C141.123 43.7002 140.87 43.9534 140.87 44.2909V44.3753C140.87 44.7128 141.123 44.966 141.46 44.966H141.545C141.882 44.966 142.135 44.7128 142.135 44.3753V44.2909C142.135 43.9534 141.882 43.7002 141.545 43.7002H141.46ZM138.338 44.2909C138.338 42.4767 139.73 41.1265 141.545 41.1265C143.359 41.1265 144.709 42.4767 144.709 44.2909C144.709 46.1052 143.359 47.4975 141.545 47.4975C139.73 47.4975 138.338 46.1895 138.338 44.2909ZM145.679 43.7002C145.342 43.7002 145.089 43.9534 145.089 44.2909V44.3753C145.089 44.7128 145.342 44.966 145.679 44.966H145.764C146.101 44.966 146.354 44.7128 146.354 44.3753V44.2909C146.354 43.9534 146.101 43.7002 145.764 43.7002H145.679ZM142.557 44.2909C142.557 42.4767 143.95 41.1265 145.764 41.1265C147.578 41.1265 148.928 42.4767 148.928 44.2909C148.928 46.1052 147.578 47.4975 145.764 47.4975C143.95 47.4975 142.557 46.1895 142.557 44.2909ZM154.118 43.7002C153.78 43.7002 153.527 43.9534 153.527 44.2909V44.3753C153.527 44.7128 153.78 44.966 154.118 44.966H154.202C154.54 44.966 154.793 44.7128 154.793 44.3753V44.2909C154.793 43.9534 154.54 43.7002 154.202 43.7002H154.118ZM150.996 44.2909C150.996 42.4767 152.388 41.1265 154.202 41.1265C156.016 41.1265 157.367 42.4767 157.367 44.2909C157.367 46.1052 156.016 47.4975 154.202 47.4975C152.388 47.4975 150.996 46.1895 150.996 44.2909ZM149.899 43.7002C149.561 43.7002 149.308 43.9534 149.308 44.2909V44.3753C149.308 44.7128 149.561 44.966 149.899 44.966H149.983C150.321 44.966 150.574 44.7128 150.574 44.3753V44.2909C150.574 43.9534 150.321 43.7002 149.983 43.7002H149.899ZM146.776 44.2909C146.776 42.4767 148.169 41.1265 149.983 41.1265C151.797 41.1265 153.147 42.4767 153.147 44.2909C153.147 46.1052 151.797 47.4975 149.983 47.4975C148.169 47.4975 146.776 46.1895 146.776 44.2909ZM158.337 43.7002C157.999 43.7002 157.746 43.9534 157.746 44.2909V44.3753C157.746 44.7128 157.999 44.966 158.337 44.966H158.421C158.759 44.966 159.012 44.7128 159.012 44.3753V44.2909C159.012 43.9534 158.759 43.7002 158.421 43.7002H158.337ZM155.215 44.2909C155.215 42.4767 156.607 41.1265 158.421 41.1265C160.236 41.1265 161.586 42.4767 161.586 44.2909C161.586 46.1052 160.236 47.4975 158.421 47.4975C156.607 47.4975 155.215 46.1895 155.215 44.2909Z" fill="white"/>
<path d="M180.512 22.6044C180.175 22.6044 179.922 22.8575 179.922 23.1951V23.2795C179.922 23.617 180.175 23.8701 180.512 23.8701H180.597C180.934 23.8701 181.187 23.617 181.187 23.2795V23.1951C181.187 22.8575 180.934 22.6044 180.597 22.6044H180.512ZM177.39 23.1951C177.39 21.3808 178.782 20.0307 180.597 20.0307C182.411 20.0307 183.761 21.3808 183.761 23.1951C183.761 25.0093 182.411 26.4016 180.597 26.4016C178.782 26.4016 177.39 25.0937 177.39 23.1951ZM176.293 26.8236C175.956 26.8236 175.702 27.0767 175.702 27.4142V27.4986C175.702 27.8362 175.956 28.0893 176.293 28.0893H176.378C176.715 28.0893 176.968 27.8362 176.968 27.4986V27.4142C176.968 27.0767 176.715 26.8236 176.378 26.8236H176.293ZM173.171 27.4142C173.171 25.6 174.563 24.2499 176.378 24.2499C178.192 24.2499 179.542 25.6 179.542 27.4142C179.542 29.2285 178.192 30.6208 176.378 30.6208C174.563 30.6208 173.171 29.3129 173.171 27.4142ZM176.293 31.0427C175.956 31.0427 175.702 31.2959 175.702 31.6334V31.7178C175.702 32.0553 175.956 32.3085 176.293 32.3085H176.378C176.715 32.3085 176.968 32.0553 176.968 31.7178V31.6334C176.968 31.2959 176.715 31.0427 176.378 31.0427H176.293ZM173.171 31.6334C173.171 29.8192 174.563 28.469 176.378 28.469C178.192 28.469 179.542 29.8192 179.542 31.6334C179.542 33.4476 178.192 34.84 176.378 34.84C174.563 34.84 173.171 33.532 173.171 31.6334ZM172.074 35.2619C171.736 35.2619 171.483 35.515 171.483 35.8526V35.937C171.483 36.2745 171.736 36.5276 172.074 36.5276H172.158C172.496 36.5276 172.749 36.2745 172.749 35.937V35.8526C172.749 35.515 172.496 35.2619 172.158 35.2619H172.074ZM168.952 35.8526C168.952 34.0383 170.344 32.6882 172.158 32.6882C173.973 32.6882 175.323 34.0383 175.323 35.8526C175.323 37.6668 173.973 39.0591 172.158 39.0591C170.344 39.0591 168.952 37.7512 168.952 35.8526ZM172.074 39.4811C171.736 39.4811 171.483 39.7342 171.483 40.0717V40.1561C171.483 40.4937 171.736 40.7468 172.074 40.7468H172.158C172.496 40.7468 172.749 40.4937 172.749 40.1561V40.0717C172.749 39.7342 172.496 39.4811 172.158 39.4811H172.074ZM168.952 40.0717C168.952 38.2575 170.344 36.9074 172.158 36.9074C173.973 36.9074 175.323 38.2575 175.323 40.0717C175.323 41.886 173.973 43.2783 172.158 43.2783C170.344 43.2783 168.952 41.9704 168.952 40.0717ZM167.855 43.7002C167.517 43.7002 167.264 43.9534 167.264 44.2909V44.3753C167.264 44.7128 167.517 44.966 167.855 44.966H167.939C168.277 44.966 168.53 44.7128 168.53 44.3753V44.2909C168.53 43.9534 168.277 43.7002 167.939 43.7002H167.855ZM164.733 44.2909C164.733 42.4767 166.125 41.1265 167.939 41.1265C169.753 41.1265 171.104 42.4767 171.104 44.2909C171.104 46.1052 169.753 47.4975 167.939 47.4975C166.125 47.4975 164.733 46.1895 164.733 44.2909ZM184.731 26.8236C184.394 26.8236 184.141 27.0767 184.141 27.4142V27.4986C184.141 27.8362 184.394 28.0893 184.731 28.0893H184.816C185.153 28.0893 185.407 27.8362 185.407 27.4986V27.4142C185.407 27.0767 185.153 26.8236 184.816 26.8236H184.731ZM181.609 27.4142C181.609 25.6 183.002 24.2499 184.816 24.2499C186.63 24.2499 187.98 25.6 187.98 27.4142C187.98 29.2285 186.63 30.6208 184.816 30.6208C183.002 30.6208 181.609 29.3129 181.609 27.4142ZM184.731 31.0427C184.394 31.0427 184.141 31.2959 184.141 31.6334V31.7178C184.141 32.0553 184.394 32.3085 184.731 32.3085H184.816C185.153 32.3085 185.407 32.0553 185.407 31.7178V31.6334C185.407 31.2959 185.153 31.0427 184.816 31.0427H184.731ZM181.609 31.6334C181.609 29.8192 183.002 28.469 184.816 28.469C186.63 28.469 187.98 29.8192 187.98 31.6334C187.98 33.4476 186.63 34.84 184.816 34.84C183.002 34.84 181.609 33.532 181.609 31.6334ZM188.951 35.2619C188.613 35.2619 188.36 35.515 188.36 35.8526V35.937C188.36 36.2745 188.613 36.5276 188.951 36.5276H189.035C189.373 36.5276 189.626 36.2745 189.626 35.937V35.8526C189.626 35.515 189.373 35.2619 189.035 35.2619H188.951ZM185.828 35.8526C185.828 34.0383 187.221 32.6882 189.035 32.6882C190.849 32.6882 192.199 34.0383 192.199 35.8526C192.199 37.6668 190.849 39.0591 189.035 39.0591C187.221 39.0591 185.828 37.7512 185.828 35.8526ZM193.17 43.7002C192.832 43.7002 192.579 43.9534 192.579 44.2909V44.3753C192.579 44.7128 192.832 44.966 193.17 44.966H193.254C193.592 44.966 193.845 44.7128 193.845 44.3753V44.2909C193.845 43.9534 193.592 43.7002 193.254 43.7002H193.17ZM190.048 44.2909C190.048 42.4767 191.44 41.1265 193.254 41.1265C195.068 41.1265 196.419 42.4767 196.419 44.2909C196.419 46.1052 195.068 47.4975 193.254 47.4975C191.44 47.4975 190.048 46.1895 190.048 44.2909ZM180.512 35.2619C180.175 35.2619 179.922 35.515 179.922 35.8526V35.937C179.922 36.2745 180.175 36.5276 180.512 36.5276H180.597C180.934 36.5276 181.187 36.2745 181.187 35.937V35.8526C181.187 35.515 180.934 35.2619 180.597 35.2619H180.512ZM177.39 35.8526C177.39 34.0383 178.782 32.6882 180.597 32.6882C182.411 32.6882 183.761 34.0383 183.761 35.8526C183.761 37.6668 182.411 39.0591 180.597 39.0591C178.782 39.0591 177.39 37.7512 177.39 35.8526ZM184.731 35.2619C184.394 35.2619 184.141 35.515 184.141 35.8526V35.937C184.141 36.2745 184.394 36.5276 184.731 36.5276H184.816C185.153 36.5276 185.407 36.2745 185.407 35.937V35.8526C185.407 35.515 185.153 35.2619 184.816 35.2619H184.731ZM181.609 35.8526C181.609 34.0383 183.002 32.6882 184.816 32.6882C186.63 32.6882 187.98 34.0383 187.98 35.8526C187.98 37.6668 186.63 39.0591 184.816 39.0591C183.002 39.0591 181.609 37.7512 181.609 35.8526ZM176.293 35.2619C175.956 35.2619 175.702 35.515 175.702 35.8526V35.937C175.702 36.2745 175.956 36.5276 176.293 36.5276H176.378C176.715 36.5276 176.968 36.2745 176.968 35.937V35.8526C176.968 35.515 176.715 35.2619 176.378 35.2619H176.293ZM173.171 35.8526C173.171 34.0383 174.563 32.6882 176.378 32.6882C178.192 32.6882 179.542 34.0383 179.542 35.8526C179.542 37.6668 178.192 39.0591 176.378 39.0591C174.563 39.0591 173.171 37.7512 173.171 35.8526ZM180.512 18.3852C180.175 18.3852 179.922 18.6384 179.922 18.9759V19.0603C179.922 19.3978 180.175 19.651 180.512 19.651H180.597C180.934 19.651 181.187 19.3978 181.187 19.0603V18.9759C181.187 18.6384 180.934 18.3852 180.597 18.3852H180.512ZM177.39 18.9759C177.39 17.1617 178.782 15.8115 180.597 15.8115C182.411 15.8115 183.761 17.1617 183.761 18.9759C183.761 20.7901 182.411 22.1825 180.597 22.1825C178.782 22.1825 177.39 20.8745 177.39 18.9759ZM188.951 39.4811C188.613 39.4811 188.36 39.7342 188.36 40.0717V40.1561C188.36 40.4937 188.613 40.7468 188.951 40.7468H189.035C189.373 40.7468 189.626 40.4937 189.626 40.1561V40.0717C189.626 39.7342 189.373 39.4811 189.035 39.4811H188.951ZM185.828 40.0717C185.828 38.2575 187.221 36.9074 189.035 36.9074C190.849 36.9074 192.199 38.2575 192.199 40.0717C192.199 41.886 190.849 43.2783 189.035 43.2783C187.221 43.2783 185.828 41.9704 185.828 40.0717Z" fill="white"/>
<path d="M211.151 26.8236C210.813 26.8236 210.56 27.0767 210.56 27.4142V27.4986C210.56 27.8362 210.813 28.0893 211.151 28.0893H211.235C211.573 28.0893 211.826 27.8362 211.826 27.4986V27.4142C211.826 27.0767 211.573 26.8236 211.235 26.8236H211.151ZM208.029 27.4142C208.029 25.6 209.421 24.2499 211.235 24.2499C213.049 24.2499 214.399 25.6 214.399 27.4142C214.399 29.2285 213.049 30.6208 211.235 30.6208C209.421 30.6208 208.029 29.3129 208.029 27.4142ZM206.932 22.6044C206.594 22.6044 206.341 22.8575 206.341 23.1951V23.2795C206.341 23.617 206.594 23.8701 206.932 23.8701H207.016C207.353 23.8701 207.607 23.617 207.607 23.2795V23.1951C207.607 22.8575 207.353 22.6044 207.016 22.6044H206.932ZM203.809 23.1951C203.809 21.3808 205.202 20.0307 207.016 20.0307C208.83 20.0307 210.18 21.3808 210.18 23.1951C210.18 25.0093 208.83 26.4016 207.016 26.4016C205.202 26.4016 203.809 25.0937 203.809 23.1951ZM202.712 18.3852C202.375 18.3852 202.122 18.6384 202.122 18.9759V19.0603C202.122 19.3978 202.375 19.651 202.712 19.651H202.797C203.134 19.651 203.387 19.3978 203.387 19.0603V18.9759C203.387 18.6384 203.134 18.3852 202.797 18.3852H202.712ZM199.59 18.9759C199.59 17.1617 200.983 15.8115 202.797 15.8115C204.611 15.8115 205.961 17.1617 205.961 18.9759C205.961 20.7901 204.611 22.1825 202.797 22.1825C200.983 22.1825 199.59 20.8745 199.59 18.9759ZM215.37 43.7002C215.032 43.7002 214.779 43.9534 214.779 44.2909V44.3753C214.779 44.7128 215.032 44.966 215.37 44.966H215.454C215.792 44.966 216.045 44.7128 216.045 44.3753V44.2909C216.045 43.9534 215.792 43.7002 215.454 43.7002H215.37ZM212.248 44.2909C212.248 42.4767 213.64 41.1265 215.454 41.1265C217.268 41.1265 218.619 42.4767 218.619 44.2909C218.619 46.1052 217.268 47.4975 215.454 47.4975C213.64 47.4975 212.248 46.1895 212.248 44.2909ZM228.027 18.3852C227.69 18.3852 227.437 18.6384 227.437 18.9759V19.0603C227.437 19.3978 227.69 19.651 228.027 19.651H228.112C228.449 19.651 228.702 19.3978 228.702 19.0603V18.9759C228.702 18.6384 228.449 18.3852 228.112 18.3852H228.027ZM224.905 18.9759C224.905 17.1617 226.298 15.8115 228.112 15.8115C229.926 15.8115 231.276 17.1617 231.276 18.9759C231.276 20.7901 229.926 22.1825 228.112 22.1825C226.298 22.1825 224.905 20.8745 224.905 18.9759ZM215.37 31.0427C215.032 31.0427 214.779 31.2959 214.779 31.6334V31.7178C214.779 32.0553 215.032 32.3085 215.37 32.3085H215.454C215.792 32.3085 216.045 32.0553 216.045 31.7178V31.6334C216.045 31.2959 215.792 31.0427 215.454 31.0427H215.37ZM212.248 31.6334C212.248 29.8192 213.64 28.469 215.454 28.469C217.268 28.469 218.619 29.8192 218.619 31.6334C218.619 33.4476 217.268 34.84 215.454 34.84C213.64 34.84 212.248 33.532 212.248 31.6334ZM215.37 35.2619C215.032 35.2619 214.779 35.515 214.779 35.8526V35.937C214.779 36.2745 215.032 36.5276 215.37 36.5276H215.454C215.792 36.5276 216.045 36.2745 216.045 35.937V35.8526C216.045 35.515 215.792 35.2619 215.454 35.2619H215.37ZM212.248 35.8526C212.248 34.0383 213.64 32.6882 215.454 32.6882C217.268 32.6882 218.619 34.0383 218.619 35.8526C218.619 37.6668 217.268 39.0591 215.454 39.0591C213.64 39.0591 212.248 37.7512 212.248 35.8526ZM215.37 39.4811C215.032 39.4811 214.779 39.7342 214.779 40.0717V40.1561C214.779 40.4937 215.032 40.7468 215.37 40.7468H215.454C215.792 40.7468 216.045 40.4937 216.045 40.1561V40.0717C216.045 39.7342 215.792 39.4811 215.454 39.4811H215.37ZM212.248 40.0717C212.248 38.2575 213.64 36.9074 215.454 36.9074C217.268 36.9074 218.619 38.2575 218.619 40.0717C218.619 41.886 217.268 43.2783 215.454 43.2783C213.64 43.2783 212.248 41.9704 212.248 40.0717ZM219.589 26.8236C219.252 26.8236 218.998 27.0767 218.998 27.4142V27.4986C218.998 27.8362 219.252 28.0893 219.589 28.0893H219.673C220.011 28.0893 220.264 27.8362 220.264 27.4986V27.4142C220.264 27.0767 220.011 26.8236 219.673 26.8236H219.589ZM216.467 27.4142C216.467 25.6 217.859 24.2499 219.673 24.2499C221.488 24.2499 222.838 25.6 222.838 27.4142C222.838 29.2285 221.488 30.6208 219.673 30.6208C217.859 30.6208 216.467 29.3129 216.467 27.4142ZM223.808 22.6044C223.471 22.6044 223.218 22.8575 223.218 23.1951V23.2795C223.218 23.617 223.471 23.8701 223.808 23.8701H223.893C224.23 23.8701 224.483 23.617 224.483 23.2795V23.1951C224.483 22.8575 224.23 22.6044 223.893 22.6044H223.808ZM220.686 23.1951C220.686 21.3808 222.078 20.0307 223.893 20.0307C225.707 20.0307 227.057 21.3808 227.057 23.1951C227.057 25.0093 225.707 26.4016 223.893 26.4016C222.078 26.4016 220.686 25.0937 220.686 23.1951Z" fill="white"/>
<defs>
<clipPath id="clip0_65_93919">
<rect x="32.9093" y="6.53125" width="50.2468" height="50.2449" rx="25.1225" fill="white"/>
</clipPath>
</defs>
</svg>
