<svg width="688" height="301" viewBox="0 0 688 301" fill="none" xmlns="http://www.w3.org/2000/svg">
<path d="M673.542 61.7485L624.223 13.249C615.692 4.85468 604.208 0.153839 592.239 0.153839H95.7604C83.7921 0.153839 72.3074 4.85468 63.7765 13.249L14.4575 61.7485C5.7388 70.325 0.827393 82.0429 0.827393 94.2731V131.037C0.827393 143.268 5.7388 154.986 14.4575 163.562L63.7765 212.061C72.3074 220.456 83.7921 225.157 95.7604 225.157H287.197C299.166 225.157 310.65 229.858 319.181 238.246L368.819 287.064C377.35 295.453 388.834 300.154 400.803 300.154H592.239C604.208 300.154 615.692 295.453 624.223 287.064L673.542 238.559C682.261 229.983 687.172 218.27 687.172 206.04V94.2731C687.172 82.0429 682.261 70.325 673.542 61.7485ZM38.9577 126.883C31.0983 126.883 24.73 120.515 24.73 112.655C24.73 104.796 31.0983 98.4275 38.9577 98.4275C46.8171 98.4275 53.1854 104.796 53.1854 112.655C53.1854 120.515 46.8171 126.883 38.9577 126.883ZM553.085 276.883H396.358C392.431 276.883 388.868 275.289 386.296 272.717C383.724 270.145 382.13 266.582 382.13 262.655C382.13 254.796 388.499 248.428 396.358 248.428H553.085C557.017 248.428 560.569 250.021 563.147 252.593C565.719 255.166 567.313 258.728 567.313 262.655C567.313 270.515 560.944 276.883 553.085 276.883ZM558.554 37.6524C558.554 29.7987 564.922 23.4247 572.782 23.4247C580.641 23.4247 587.009 29.7987 587.009 37.6524C587.009 45.5061 580.641 51.8801 572.782 51.8801C564.922 51.8801 558.554 45.5118 558.554 37.6524ZM596.684 276.883C588.825 276.883 582.456 270.515 582.456 262.655C582.456 254.796 588.825 248.428 596.684 248.428C604.544 248.428 610.912 254.796 610.912 262.655C610.912 270.515 604.544 276.883 596.684 276.883Z" fill="black"/>
<path d="M154.752 74.4794V62.5281H156.562L159.021 67.3257L161.479 62.5281H163.289V74.4794H161.582V65.9086L159.482 70.0062H158.56L156.46 65.9086V74.4794H154.752ZM165.406 74.4794V62.5281H172.236V64.2354H167.114V67.3598H171.57V69.0671H167.114V72.772H172.236V74.4794H165.406ZM176.709 74.4794C174.95 74.4794 173.533 73.0623 173.533 71.3037V70.6208H175.241V71.3037C175.241 72.1062 175.907 72.772 176.709 72.772H177.853C178.724 72.772 179.338 72.2257 179.338 71.4745C179.338 69.1184 173.704 68.6062 173.704 65.3622C173.704 63.6891 175.019 62.5281 176.88 62.5281H177.682C179.441 62.5281 180.875 63.9452 180.875 65.7037V66.2159H179.168V65.7037C179.168 64.8842 178.502 64.2354 177.682 64.2354H176.88C175.958 64.2354 175.411 64.6622 175.411 65.3622C175.411 67.172 181.046 67.872 181.046 71.4745C181.046 73.1818 179.663 74.4794 177.853 74.4794H176.709ZM185.512 74.4794C183.754 74.4794 182.337 73.0623 182.337 71.3037V70.6208H184.044V71.3037C184.044 72.1062 184.71 72.772 185.512 72.772H186.656C187.527 72.772 188.142 72.2257 188.142 71.4745C188.142 69.1184 182.508 68.6062 182.508 65.3622C182.508 63.6891 183.822 62.5281 185.683 62.5281H186.486C188.244 62.5281 189.678 63.9452 189.678 65.7037V66.2159H187.971V65.7037C187.971 64.8842 187.305 64.2354 186.486 64.2354H185.683C184.761 64.2354 184.215 64.6622 184.215 65.3622C184.215 67.172 189.849 67.872 189.849 71.4745C189.849 73.1818 188.466 74.4794 186.656 74.4794H185.512ZM191.106 74.4794V70.5525L194.094 62.5281H195.801L198.789 70.5525V74.4794H197.082V71.7135H192.813V74.4794H191.106ZM193.138 70.0062H196.757L194.965 65.2257H194.93L193.138 70.0062ZM203.511 69.7501V68.0427H207.779V71.3891C207.779 73.0794 206.413 74.4794 204.706 74.4794H203.34C201.65 74.4794 200.267 73.0794 200.267 71.3891V65.6013C200.267 63.8939 201.65 62.5281 203.34 62.5281H204.706C206.413 62.5281 207.779 63.8939 207.779 65.6013V66.5403H206.072V65.6013C206.072 64.833 205.474 64.2354 204.706 64.2354H203.34C202.572 64.2354 201.974 64.85 201.974 65.6013V71.3891C201.974 72.1403 202.589 72.755 203.34 72.755H204.706C205.457 72.755 206.072 72.1403 206.072 71.3891V69.7501H203.511ZM209.74 74.4794V62.5281H216.57V64.2354H211.448V67.3598H215.904V69.0671H211.448V72.772H216.57V74.4794H209.74ZM218.174 69.6989V67.9062H220.138V69.6989H218.174ZM218.174 74.4794V72.6867H220.138V74.4794H218.174Z" fill="white"/>
<path d="M497.527 208.22C495.769 208.22 494.352 206.803 494.352 205.044V204.361H496.059V205.044C496.059 205.847 496.725 206.513 497.527 206.513H498.671C499.542 206.513 500.157 205.966 500.157 205.215C500.157 202.859 494.522 202.347 494.522 199.103C494.522 197.43 495.837 196.269 497.698 196.269H498.501C500.259 196.269 501.693 197.686 501.693 199.444V199.956H499.986V199.444C499.986 198.625 499.32 197.976 498.501 197.976H497.698C496.776 197.976 496.23 198.403 496.23 199.103C496.23 200.913 501.864 201.613 501.864 205.215C501.864 206.922 500.481 208.22 498.671 208.22H497.527ZM505.383 208.22V197.976H502.481V196.269H509.993V197.976H507.091V208.22H505.383ZM510.04 208.22V204.293L513.028 196.269H514.735L517.723 204.293V208.22H516.016V205.454H511.748V208.22H510.04ZM512.072 203.747H515.692L513.899 198.966H513.865L512.072 203.747ZM525.039 208.22L522.87 203.439H521.112V208.22H519.404V196.269H523.843C525.551 196.269 526.917 197.635 526.917 199.342V200.366C526.917 201.783 525.978 202.961 524.68 203.32L526.917 208.22H525.039ZM521.112 201.732H523.843C524.612 201.732 525.209 201.135 525.209 200.366V199.342C525.209 198.574 524.612 197.976 523.843 197.976H521.112V201.732ZM530.51 208.22V197.976H527.607V196.269H535.12V197.976H532.217V208.22H530.51ZM539.229 208.22V196.269H543.668C545.375 196.269 546.741 197.635 546.741 199.342V200.366C546.741 202.074 545.375 203.439 543.668 203.439H540.936V208.22H539.229ZM540.936 201.732H543.668C544.436 201.732 545.034 201.135 545.034 200.366V199.342C545.034 198.574 544.436 197.976 543.668 197.976H540.936V201.732ZM553.933 208.22L551.765 203.439H550.006V208.22H548.299V196.269H552.738C554.445 196.269 555.811 197.635 555.811 199.342V200.366C555.811 201.783 554.872 202.961 553.574 203.32L555.811 208.22H553.933ZM550.006 201.732H552.738C553.506 201.732 554.104 201.135 554.104 200.366V199.342C554.104 198.574 553.506 197.976 552.738 197.976H550.006V201.732ZM557.486 208.22V196.269H564.315V197.976H559.193V201.1H563.649V202.808H559.193V206.513H564.315V208.22H557.486ZM568.788 208.22C567.03 208.22 565.613 206.803 565.613 205.044V204.361H567.32V205.044C567.32 205.847 567.986 206.513 568.788 206.513H569.932C570.803 206.513 571.417 205.966 571.417 205.215C571.417 202.859 565.783 202.347 565.783 199.103C565.783 197.43 567.098 196.269 568.959 196.269H569.761C571.52 196.269 572.954 197.686 572.954 199.444V199.956H571.247V199.444C571.247 198.625 570.581 197.976 569.761 197.976H568.959C568.037 197.976 567.491 198.403 567.491 199.103C567.491 200.913 573.125 201.613 573.125 205.215C573.125 206.922 571.742 208.22 569.932 208.22H568.788ZM577.592 208.22C575.833 208.22 574.416 206.803 574.416 205.044V204.361H576.123V205.044C576.123 205.847 576.789 206.513 577.592 206.513H578.736C579.606 206.513 580.221 205.966 580.221 205.215C580.221 202.859 574.587 202.347 574.587 199.103C574.587 197.43 575.901 196.269 577.762 196.269H578.565C580.323 196.269 581.757 197.686 581.757 199.444V199.956H580.05V199.444C580.05 198.625 579.384 197.976 578.565 197.976H577.762C576.84 197.976 576.294 198.403 576.294 199.103C576.294 200.913 581.928 201.613 581.928 205.215C581.928 206.922 580.545 208.22 578.736 208.22H577.592ZM583.117 208.22V206.513H586.019V197.976H583.117V196.269H590.629V197.976H587.727V206.513H590.629V208.22H583.117ZM592.232 208.22V196.269H594.811L598.55 205.727V196.269H600.257V208.22H597.679L593.94 198.761V208.22H592.232ZM605.477 203.491V201.783H609.745V205.13C609.745 206.82 608.38 208.22 606.672 208.22H605.306C603.616 208.22 602.233 206.82 602.233 205.13V199.342C602.233 197.635 603.616 196.269 605.306 196.269H606.672C608.38 196.269 609.745 197.635 609.745 199.342V200.281H608.038V199.342C608.038 198.574 607.44 197.976 606.672 197.976H605.306C604.538 197.976 603.94 198.591 603.94 199.342V205.13C603.94 205.881 604.555 206.496 605.306 206.496H606.672C607.423 206.496 608.038 205.881 608.038 205.13V203.491H605.477ZM497.757 223.22C495.299 223.22 493.933 221.461 493.933 218.815L496.289 217.005C495.674 216.1 495.247 215.178 495.247 214.325C495.247 212.874 496.169 211.269 498.252 211.269C500.148 211.269 501.36 212.822 501.36 215.076L498.611 217.227C499.243 217.927 499.943 218.678 500.608 219.447C500.728 219.037 500.796 218.593 500.796 218.098V217.671H502.504V218.098C502.504 219.122 502.213 220.078 501.735 220.881C502.299 221.7 502.674 222.486 502.674 223.22H500.967C500.967 222.913 500.83 222.571 500.591 222.196C499.806 222.827 498.816 223.22 497.757 223.22ZM495.64 219.549C495.76 220.83 496.391 221.513 497.757 221.513C498.508 221.513 499.14 221.291 499.618 220.898C498.918 220.096 498.047 219.191 497.279 218.269L495.64 219.549ZM496.955 214.376C496.955 214.837 497.211 215.383 497.621 215.964L499.516 214.513C499.516 213.437 498.935 212.908 498.218 212.908C497.365 212.908 496.955 213.608 496.955 214.376ZM507.208 223.22V211.269H509.018L511.476 216.066L513.935 211.269H515.745V223.22H514.037V214.649L511.937 218.747H511.015L508.915 214.649V223.22H507.208ZM520.935 223.22C519.177 223.22 517.725 221.82 517.725 220.13V214.342C517.725 212.635 519.177 211.269 520.935 211.269H522.369C524.145 211.269 525.579 212.635 525.579 214.342V220.13C525.579 221.82 524.145 223.22 522.369 223.22H520.935ZM519.416 220.13C519.416 220.881 520.116 221.496 520.935 221.496H522.369C523.189 221.496 523.889 220.881 523.889 220.13V214.342C523.889 213.574 523.223 212.976 522.369 212.976H520.935C520.082 212.976 519.416 213.591 519.416 214.342V220.13ZM530.009 223.22L527.106 215.195V211.269H528.814V214.888L530.845 220.522H530.88L532.911 214.888V211.269H534.619V215.195L531.716 223.22H530.009ZM535.824 223.22V221.513H538.726V212.976H535.824V211.269H543.336V212.976H540.433V221.513H543.336V223.22H535.824ZM544.939 223.22V211.269H547.517L551.256 220.727V211.269H552.964V223.22H550.386L546.647 213.761V223.22H544.939ZM558.184 218.491V216.783H562.452V220.13C562.452 221.82 561.086 223.22 559.379 223.22H558.013C556.323 223.22 554.94 221.82 554.94 220.13V214.342C554.94 212.635 556.323 211.269 558.013 211.269H559.379C561.086 211.269 562.452 212.635 562.452 214.342V215.281H560.745V214.342C560.745 213.574 560.147 212.976 559.379 212.976H558.013C557.245 212.976 556.647 213.591 556.647 214.342V220.13C556.647 220.881 557.262 221.496 558.013 221.496H559.379C560.13 221.496 560.745 220.881 560.745 220.13V218.491H558.184ZM601.525 218.439V216.647H603.489V218.439H601.525ZM601.525 223.22V221.427H603.489V223.22H601.525ZM606.539 224.944H604.832V223.22H606.539C607.291 223.22 607.905 222.605 607.905 221.854V212.635C607.905 211.883 607.308 211.269 606.539 211.269H604.832V209.561H606.539C608.23 209.561 609.613 210.927 609.613 212.635V221.854C609.613 223.544 608.23 224.944 606.539 224.944Z" fill="white"/>
<path d="M306.928 74.4794V62.5281H311.026C312.733 62.5281 314.099 63.8939 314.099 65.6013V66.2842C314.099 67.0696 313.809 67.8037 313.314 68.333C313.997 68.8964 314.44 69.7501 314.44 70.7233V71.4062C314.44 73.1135 313.075 74.4794 311.367 74.4794H306.928ZM308.635 72.772H311.367C312.136 72.772 312.733 72.1745 312.733 71.4062V70.7233C312.733 69.955 312.136 69.3574 311.367 69.3574H308.635V72.772ZM308.635 67.6501H311.026C311.794 67.6501 312.392 67.0525 312.392 66.2842V65.6013C312.392 64.833 311.794 64.2354 311.026 64.2354H308.635V67.6501ZM316.198 74.4794V62.5281H323.028V64.2354H317.906V67.3598H322.362V69.0671H317.906V72.772H323.028V74.4794H316.198ZM324.223 74.4794V72.772H327.125V64.2354H324.223V62.5281H331.735V64.2354H328.833V72.772H331.735V74.4794H324.223ZM333.338 74.4794V62.5281H335.916L339.655 71.9867V62.5281H341.363V74.4794H338.785L335.046 65.0208V74.4794H333.338ZM346.583 69.7501V68.0427H350.851V71.3891C350.851 73.0794 349.485 74.4794 347.778 74.4794H346.412C344.722 74.4794 343.339 73.0794 343.339 71.3891V65.6013C343.339 63.8939 344.722 62.5281 346.412 62.5281H347.778C349.485 62.5281 350.851 63.8939 350.851 65.6013V66.5403H349.144V65.6013C349.144 64.833 348.546 64.2354 347.778 64.2354H346.412C345.644 64.2354 345.046 64.85 345.046 65.6013V71.3891C345.046 72.1403 345.661 72.755 346.412 72.755H347.778C348.529 72.755 349.144 72.1403 349.144 71.3891V69.7501H346.583ZM358.68 74.4794C356.921 74.4794 355.504 73.0623 355.504 71.3037V70.6208H357.211V71.3037C357.211 72.1062 357.877 72.772 358.68 72.772H359.824C360.694 72.772 361.309 72.2257 361.309 71.4745C361.309 69.1184 355.675 68.6062 355.675 65.3622C355.675 63.6891 356.989 62.5281 358.85 62.5281H359.653C361.411 62.5281 362.846 63.9452 362.846 65.7037V66.2159H361.138V65.7037C361.138 64.8842 360.472 64.2354 359.653 64.2354H358.85C357.928 64.2354 357.382 64.6622 357.382 65.3622C357.382 67.172 363.016 67.872 363.016 71.4745C363.016 73.1818 361.633 74.4794 359.824 74.4794H358.68ZM364.717 74.4794V62.5281H371.546V64.2354H366.424V67.3598H370.881V69.0671H366.424V72.772H371.546V74.4794H364.717ZM378.888 74.4794L376.72 69.6989H374.961V74.4794H373.254V62.5281H377.693C379.4 62.5281 380.766 63.8939 380.766 65.6013V66.6257C380.766 68.0427 379.827 69.2208 378.529 69.5793L380.766 74.4794H378.888ZM374.961 67.9915H377.693C378.461 67.9915 379.059 67.394 379.059 66.6257V65.6013C379.059 64.833 378.461 64.2354 377.693 64.2354H374.961V67.9915ZM381.928 74.4794V72.772H384.831V64.2354H381.928V62.5281H389.441V64.2354H386.538V72.772H389.441V74.4794H381.928ZM394.117 74.4794C392.359 74.4794 390.907 73.0794 390.907 71.3891V65.6013C390.907 63.8939 392.359 62.5281 394.117 62.5281H395.551C397.327 62.5281 398.761 63.8939 398.761 65.6013V71.3891C398.761 73.0794 397.327 74.4794 395.551 74.4794H394.117ZM392.598 71.3891C392.598 72.1403 393.298 72.755 394.117 72.755H395.551C396.371 72.755 397.071 72.1403 397.071 71.3891V65.6013C397.071 64.833 396.405 64.2354 395.551 64.2354H394.117C393.264 64.2354 392.598 64.85 392.598 65.6013V71.3891ZM403.77 74.4794C402.062 74.4794 400.697 73.0794 400.697 71.3891V62.5281H402.404V71.3891C402.404 72.1403 403.018 72.755 403.77 72.755H405.306C406.058 72.755 406.672 72.1403 406.672 71.3891V62.5281H408.379V71.3891C408.379 73.0794 406.997 74.4794 405.306 74.4794H403.77ZM413.217 74.4794C411.459 74.4794 410.042 73.0623 410.042 71.3037V70.6208H411.749V71.3037C411.749 72.1062 412.415 72.772 413.217 72.772H414.361C415.232 72.772 415.847 72.2257 415.847 71.4745C415.847 69.1184 410.212 68.6062 410.212 65.3622C410.212 63.6891 411.527 62.5281 413.388 62.5281H414.191C415.949 62.5281 417.383 63.9452 417.383 65.7037V66.2159H415.676V65.7037C415.676 64.8842 415.01 64.2354 414.191 64.2354H413.388C412.466 64.2354 411.92 64.6622 411.92 65.3622C411.92 67.172 417.554 67.872 417.554 71.4745C417.554 73.1818 416.171 74.4794 414.361 74.4794H413.217ZM422.168 74.4794V70.5354L427.973 67.2745V65.6013C427.973 64.833 427.376 64.2354 426.607 64.2354H425.241C424.49 64.2354 423.876 64.85 423.876 65.6013V66.1988H422.168V65.6013C422.168 63.8939 423.551 62.5281 425.241 62.5281H426.607C428.315 62.5281 429.681 63.8939 429.681 65.6013V68.2818L423.876 71.5428V72.772H429.681V74.4794H422.168ZM431.371 69.5281V62.5281H433.078V67.8208H435.469V63.5525H437.176V67.8208H438.883V69.5281H437.176V74.4794H435.469V69.5281H431.371ZM439.599 74.4794V71.7476L445.404 64.6452V62.5281H447.111V65.2598L441.306 72.3623V74.4794H439.599ZM448.94 74.4794V71.1501L454.062 65.8574V64.2354H449.964V66.1135H448.257V62.5281H455.769V66.5403L450.647 71.833V74.4794H448.94ZM455.447 74.4794V72.6867H457.41V74.4794H455.447ZM306.928 89.4794V77.5281H311.367C313.057 77.5281 314.44 78.8939 314.44 80.6013V86.3891C314.44 88.0794 313.057 89.4794 311.367 89.4794H306.928ZM308.635 87.755H311.367C312.118 87.755 312.733 87.1403 312.733 86.3891V80.6013C312.733 79.85 312.136 79.2354 311.367 79.2354H308.635V87.755ZM319.488 89.4794C317.73 89.4794 316.279 88.0794 316.279 86.3891V80.6013C316.279 78.8939 317.73 77.5281 319.488 77.5281H320.923C322.698 77.5281 324.132 78.8939 324.132 80.6013V86.3891C324.132 88.0794 322.698 89.4794 320.923 89.4794H319.488ZM317.969 86.3891C317.969 87.1403 318.669 87.755 319.488 87.755H320.923C321.742 87.755 322.442 87.1403 322.442 86.3891V80.6013C322.442 79.833 321.776 79.2354 320.923 79.2354H319.488C318.635 79.2354 317.969 79.85 317.969 80.6013V86.3891ZM326.119 89.4794V77.5281H332.948V79.2354H327.826V82.3598H332.282V84.0671H327.826V87.772H332.948V89.4794H326.119ZM337.421 89.4794C335.663 89.4794 334.246 88.0623 334.246 86.3037V85.6208H335.953V86.3037C335.953 87.1062 336.619 87.772 337.421 87.772H338.565C339.436 87.772 340.051 87.2257 340.051 86.4745C340.051 84.1184 334.417 83.6062 334.417 80.3622C334.417 78.6891 335.731 77.5281 337.592 77.5281H338.395C340.153 77.5281 341.587 78.9452 341.587 80.7037V81.2159H339.88V80.7037C339.88 79.8842 339.214 79.2354 338.395 79.2354H337.592C336.67 79.2354 336.124 79.6622 336.124 80.3622C336.124 82.172 341.758 82.872 341.758 86.4745C341.758 88.1818 340.375 89.4794 338.565 89.4794H337.421ZM346.56 89.4794V77.5281H349.138L352.877 86.9867V77.5281H354.585V89.4794H352.007L348.267 80.0208V89.4794H346.56ZM359.771 89.4794C358.012 89.4794 356.561 88.0794 356.561 86.3891V80.6013C356.561 78.8939 358.012 77.5281 359.771 77.5281H361.205C362.98 77.5281 364.415 78.8939 364.415 80.6013V86.3891C364.415 88.0794 362.98 89.4794 361.205 89.4794H359.771ZM358.251 86.3891C358.251 87.1403 358.951 87.755 359.771 87.755H361.205C362.024 87.755 362.724 87.1403 362.724 86.3891V80.6013C362.724 79.833 362.058 79.2354 361.205 79.2354H359.771C358.917 79.2354 358.251 79.85 358.251 80.6013V86.3891ZM368.203 89.4794V79.2354H365.301V77.5281H372.813V79.2354H369.91V89.4794H368.203ZM379.688 89.4794C377.929 89.4794 376.512 88.0623 376.512 86.3037V85.6208H378.219V86.3037C378.219 87.1062 378.885 87.772 379.688 87.772H380.832C381.702 87.772 382.317 87.2257 382.317 86.4745C382.317 84.1184 376.683 83.6062 376.683 80.3622C376.683 78.6891 377.998 77.5281 379.858 77.5281H380.661C382.419 77.5281 383.854 78.9452 383.854 80.7037V81.2159H382.146V80.7037C382.146 79.8842 381.48 79.2354 380.661 79.2354H379.858C378.937 79.2354 378.39 79.6622 378.39 80.3622C378.39 82.172 384.024 82.872 384.024 86.4745C384.024 88.1818 382.641 89.4794 380.832 89.4794H379.688ZM388.798 89.4794C387.04 89.4794 385.589 88.0794 385.589 86.3891V80.6013C385.589 78.8939 387.04 77.5281 388.798 77.5281H390.233C392.008 77.5281 393.442 78.8939 393.442 80.6013V86.3891C393.442 88.0794 392.008 89.4794 390.233 89.4794H388.798ZM387.279 86.3891C387.279 87.1403 387.979 87.755 388.798 87.755H390.233C391.052 87.755 391.752 87.1403 391.752 86.3891V80.6013C391.752 79.833 391.086 79.2354 390.233 79.2354H388.798C387.945 79.2354 387.279 79.85 387.279 80.6013V86.3891ZM398.451 89.4794C396.744 89.4794 395.378 88.0794 395.378 86.3891V77.5281H397.085V86.3891C397.085 87.1403 397.7 87.755 398.451 87.755H399.988C400.739 87.755 401.353 87.1403 401.353 86.3891V77.5281H403.061V86.3891C403.061 88.0794 401.678 89.4794 399.988 89.4794H398.451ZM405.133 89.4794V77.5281H407.711L411.45 86.9867V77.5281H413.157V89.4794H410.579L406.84 80.0208V89.4794H405.133ZM415.27 89.4794V77.5281H419.709C421.399 77.5281 422.782 78.8939 422.782 80.6013V86.3891C422.782 88.0794 421.399 89.4794 419.709 89.4794H415.27ZM416.977 87.755H419.709C420.46 87.755 421.075 87.1403 421.075 86.3891V80.6013C421.075 79.85 420.477 79.2354 419.709 79.2354H416.977V87.755ZM427.858 89.4794V77.5281H434.346V79.2354H429.566V82.872H433.714V84.5793H429.566V89.4794H427.858ZM438.767 89.4794C437.059 89.4794 435.693 88.0794 435.693 86.3891V77.5281H437.401V86.3891C437.401 87.1403 438.015 87.755 438.767 87.755H440.303C441.054 87.755 441.669 87.1403 441.669 86.3891V77.5281H443.376V86.3891C443.376 88.0794 441.993 89.4794 440.303 89.4794H438.767ZM445.448 89.4794V77.5281H448.026L451.765 86.9867V77.5281H453.473V89.4794H450.895L447.156 80.0208V89.4794H445.448ZM455.364 89.4794V87.6867H457.327V89.4794H455.364ZM306.928 119.479V107.528H313.757V109.235H308.635V112.36H313.092V114.067H308.635V117.772H313.757V119.479H306.928ZM315.465 119.479V107.528H318.043L321.782 116.987V107.528H323.489V119.479H320.911L317.172 110.021V119.479H315.465ZM328.061 119.479C326.353 119.479 324.987 118.079 324.987 116.389V114.938H326.695V116.389C326.695 117.14 327.309 117.755 328.061 117.755H329.426C330.178 117.755 330.792 117.14 330.792 116.389V109.235H326.524V107.528H332.5V116.389C332.5 118.079 331.117 119.479 329.426 119.479H328.061ZM337.645 119.479C335.887 119.479 334.436 118.079 334.436 116.389V110.601C334.436 108.894 335.887 107.528 337.645 107.528H339.08C340.855 107.528 342.289 108.894 342.289 110.601V116.389C342.289 118.079 340.855 119.479 339.08 119.479H337.645ZM336.126 116.389C336.126 117.14 336.826 117.755 337.645 117.755H339.08C339.899 117.755 340.599 117.14 340.599 116.389V110.601C340.599 109.833 339.933 109.235 339.08 109.235H337.645C336.792 109.235 336.126 109.85 336.126 110.601V116.389ZM346.685 115.228L343.782 111.626V107.528H345.49V111.011L347.504 113.521H347.573L349.587 111.011V107.528H351.295V111.626L348.392 115.228V119.479H346.685V115.228ZM358.746 114.699V112.906H360.709V114.699H358.746ZM358.746 119.479V117.687H360.709V119.479H358.746ZM363.76 121.204H362.053V119.479H363.76C364.511 119.479 365.126 118.865 365.126 118.114V108.894C365.126 108.143 364.528 107.528 363.76 107.528H362.053V105.821H363.76C365.45 105.821 366.833 107.187 366.833 108.894V118.114C366.833 119.804 365.45 121.204 363.76 121.204Z" fill="white"/>
</svg>
