<svg width="434" height="190" viewBox="0 0 434 190" fill="none" xmlns="http://www.w3.org/2000/svg">
<rect width="434" height="190" fill="black"/>
<path fill-rule="evenodd" clip-rule="evenodd" d="M206.047 53.5936C205.281 53.5936 204.707 54.193 204.707 54.9921V55.1919C204.707 55.9911 205.281 56.5904 206.047 56.5904H206.239C207.005 56.5904 207.579 55.9911 207.579 55.1919V54.9921C207.579 54.193 207.005 53.5936 206.239 53.5936H206.047ZM198.962 54.9921C198.962 50.6966 202.121 47.5 206.239 47.5C210.356 47.5 213.42 50.6966 213.42 54.9921C213.42 59.2876 210.356 62.5841 206.239 62.5841C205.186 62.5841 204.195 62.3815 203.304 62.0048C203.654 62.907 203.845 63.9101 203.845 64.9816C203.845 69.2771 200.781 72.5736 196.664 72.5736C195.611 72.5736 194.62 72.371 193.729 71.9942C194.079 72.8964 194.27 73.8996 194.27 74.9711C194.27 79.2666 191.206 82.5631 187.089 82.5631C186.036 82.5631 185.045 82.3605 184.154 81.9837C184.504 82.8859 184.695 83.8891 184.695 84.9606C184.695 89.256 181.631 92.5526 177.514 92.5526C176.461 92.5526 175.47 92.35 174.579 91.9732C174.929 92.8754 175.12 93.8785 175.12 94.95C175.12 96.8995 174.489 98.6431 173.415 99.9663C174.489 101.267 175.12 102.99 175.12 104.94C175.12 106.057 174.913 107.107 174.533 108.049C175.436 107.653 176.443 107.437 177.514 107.437C179.382 107.437 181.034 108.095 182.281 109.216C183.549 108.095 185.22 107.437 187.089 107.437C188.113 107.437 189.072 107.635 189.935 107.998C189.581 107.082 189.387 106.054 189.387 104.94C189.387 100.644 192.547 97.4474 196.664 97.4474C199.239 97.4474 201.403 98.6985 202.662 100.687C202.816 100.449 202.983 100.222 203.162 100.007C202.086 98.7057 201.449 96.9688 201.449 94.9498C201.449 90.6544 204.609 87.4577 208.726 87.4577C209.75 87.4577 210.71 87.6556 211.573 88.0191C211.218 87.1027 211.024 86.0745 211.024 84.9603C211.024 80.6649 214.184 77.4682 218.301 77.4682C219.325 77.4682 220.285 77.6661 221.148 78.0296C220.793 77.1132 220.599 76.085 220.599 74.9709C220.599 70.6754 223.759 67.4788 227.876 67.4788C229.744 67.4788 231.396 68.1371 232.643 69.2578C233.911 68.1371 235.582 67.4788 237.451 67.4788C239.319 67.4788 240.971 68.1371 242.218 69.2578C243.486 68.1371 245.157 67.4788 247.026 67.4788C251.143 67.4788 254.207 70.6754 254.207 74.9709C254.207 76.0886 253.999 77.1386 253.62 78.0806C254.523 77.6847 255.529 77.4682 256.601 77.4682C258.469 77.4682 260.121 78.1266 261.368 79.2473C262.636 78.1266 264.307 77.4682 266.176 77.4682C267.2 77.4682 268.159 77.6661 269.022 78.0296C268.668 77.1132 268.474 76.085 268.474 74.9709C268.474 70.6754 271.633 67.4788 275.751 67.4788C279.868 67.4788 282.932 70.6754 282.932 74.9709C282.932 79.2663 279.868 82.5629 275.751 82.5629C274.697 82.5629 273.707 82.3603 272.816 81.9835C273.166 82.8857 273.357 83.8888 273.357 84.9603C273.357 89.2558 270.293 92.5524 266.176 92.5524C265.123 92.5524 264.132 92.3498 263.241 91.973C263.591 92.8752 263.782 93.8783 263.782 94.9498C263.782 99.2453 260.718 102.542 256.601 102.542C255.548 102.542 254.557 102.339 253.666 101.962C254.016 102.865 254.207 103.868 254.207 104.939C254.207 106.057 253.999 107.107 253.62 108.049C254.523 107.653 255.529 107.437 256.601 107.437C258.469 107.437 260.121 108.095 261.368 109.216C262.636 108.095 264.307 107.437 266.176 107.437C267.2 107.437 268.159 107.635 269.022 107.998C268.668 107.082 268.474 106.053 268.474 104.939C268.474 100.644 271.633 97.4472 275.751 97.4472C279.868 97.4472 282.932 100.644 282.932 104.939C282.932 109.235 279.868 112.531 275.751 112.531C274.697 112.531 273.707 112.329 272.816 111.952C273.166 112.854 273.357 113.857 273.357 114.929C273.357 119.224 270.293 122.521 266.176 122.521C264.289 122.521 262.603 121.87 261.33 120.733C260.088 121.855 258.451 122.521 256.601 122.521C252.483 122.521 249.324 119.424 249.324 114.929C249.324 113.857 249.52 112.854 249.88 111.951C249.015 112.326 248.053 112.531 247.026 112.531C245.973 112.531 244.982 112.329 244.091 111.952C244.441 112.854 244.632 113.857 244.632 114.929C244.632 119.224 241.568 122.521 237.451 122.521C235.564 122.521 233.878 121.87 232.605 120.733C231.363 121.855 229.726 122.521 227.876 122.521C225.989 122.521 224.303 121.87 223.03 120.733C221.788 121.855 220.151 122.521 218.301 122.521C214.184 122.521 211.024 119.424 211.024 114.929C211.024 113.857 211.221 112.854 211.58 111.951C210.715 112.326 209.753 112.531 208.726 112.531C206.132 112.531 203.917 111.302 202.634 109.268C201.371 111.26 199.221 112.532 196.664 112.532C195.611 112.532 194.62 112.329 193.729 111.952C194.079 112.854 194.27 113.858 194.27 114.929C194.27 119.224 191.206 122.521 187.089 122.521C185.202 122.521 183.516 121.871 182.243 120.733C181.001 121.856 179.364 122.521 177.514 122.521C173.397 122.521 170.237 119.424 170.237 114.929C170.237 113.857 170.434 112.854 170.793 111.952C169.928 112.326 168.966 112.532 167.939 112.532C165.344 112.532 163.13 111.302 161.847 109.267C160.584 111.26 158.434 112.531 155.877 112.531C154.824 112.531 153.833 112.329 152.942 111.952C153.292 112.854 153.483 113.857 153.483 114.929C153.483 119.224 150.419 122.521 146.302 122.521C144.415 122.521 142.729 121.87 141.456 120.733C140.214 121.855 138.577 122.521 136.727 122.521C134.84 122.521 133.154 121.87 131.881 120.733C130.639 121.855 129.002 122.521 127.152 122.521C123.035 122.521 119.875 119.424 119.875 114.929C119.875 113.857 120.071 112.854 120.431 111.951C119.566 112.326 118.604 112.531 117.577 112.531C115.69 112.531 114.004 111.881 112.731 110.743C111.489 111.866 109.852 112.531 108.002 112.531C106.949 112.531 105.958 112.329 105.067 111.952C105.417 112.854 105.608 113.857 105.608 114.929C105.608 119.224 102.544 122.521 98.4269 122.521C97.3738 122.521 96.3833 122.318 95.4924 121.941C95.8425 122.844 96.0331 123.847 96.0331 124.918C96.0331 129.214 92.9692 132.51 88.8519 132.51C87.7988 132.51 86.8084 132.308 85.9174 131.931C86.2675 132.833 86.4582 133.836 86.4582 134.908C86.4582 139.203 83.3942 142.5 79.277 142.5C75.1597 142.5 72 139.403 72 134.908C72 130.612 75.1597 127.416 79.277 127.416C80.3014 127.416 81.2606 127.614 82.1237 127.977C81.769 127.061 81.575 126.032 81.575 124.918C81.575 120.623 84.7347 117.426 88.8519 117.426C89.8764 117.426 90.8356 117.624 91.6986 117.988C91.344 117.071 91.1499 116.043 91.1499 114.929C91.1499 110.633 94.3097 107.437 98.4269 107.437C99.4513 107.437 100.411 107.635 101.274 107.998C100.919 107.082 100.725 106.053 100.725 104.939C100.725 100.644 103.885 97.4472 108.002 97.4472C109.026 97.4472 109.986 97.6451 110.849 98.0086C110.494 97.0922 110.3 96.064 110.3 94.9499C110.3 90.6544 113.46 87.4578 117.577 87.4578C118.601 87.4578 119.56 87.6557 120.424 88.0191C120.069 87.1027 119.875 86.0745 119.875 84.9604C119.875 83.8886 120.071 82.8853 120.431 81.9829C119.566 82.3577 118.604 82.5629 117.577 82.5629C113.46 82.5629 110.3 79.4662 110.3 74.9709C110.3 70.6754 113.46 67.4788 117.577 67.4788C121.694 67.4788 124.758 70.6754 124.758 74.9709C124.758 76.0886 124.551 77.1387 124.171 78.0806C125.074 77.6847 126.08 77.4683 127.152 77.4683C128.176 77.4683 129.135 77.6662 129.998 78.0297C129.644 77.1132 129.45 76.085 129.45 74.9709C129.45 70.6754 132.609 67.4788 136.727 67.4788C138.595 67.4788 140.247 68.1372 141.494 69.2579C142.762 68.1372 144.433 67.4788 146.302 67.4788C148.17 67.4788 149.822 68.1372 151.069 69.2579C152.337 68.1372 154.008 67.4788 155.877 67.4788C159.994 67.4788 163.058 70.6754 163.058 74.9709C163.058 76.0886 162.85 77.1387 162.471 78.0806C163.374 77.6847 164.38 77.4683 165.452 77.4683C168.027 77.4683 170.191 78.7195 171.45 80.7081C172.737 78.7196 174.938 77.4685 177.514 77.4685C178.538 77.4685 179.497 77.6664 180.361 78.0298C180.006 77.1134 179.812 76.0852 179.812 74.9711C179.812 70.6756 182.972 67.479 187.089 67.479C188.113 67.479 189.072 67.6769 189.936 68.0404C189.581 67.1239 189.387 66.0957 189.387 64.9816C189.387 60.6861 192.547 57.4895 196.664 57.4895C197.688 57.4895 198.647 57.6874 199.51 58.0509C199.156 57.1344 198.962 56.1062 198.962 54.9921ZM159.887 90.0171C158.812 88.7162 158.175 86.9794 158.175 84.9604C158.175 83.8886 158.371 82.8853 158.731 81.9829C157.866 82.3577 156.904 82.5629 155.877 82.5629C153.99 82.5629 152.304 81.9124 151.031 80.7749C149.789 81.8975 148.152 82.5629 146.302 82.5629C144.415 82.5629 142.729 81.9124 141.456 80.7749C140.214 81.8975 138.577 82.5629 136.727 82.5629C135.674 82.5629 134.683 82.3603 133.792 81.9835C134.142 82.8857 134.333 83.8889 134.333 84.9604C134.333 89.2559 131.269 92.5524 127.152 92.5524C126.099 92.5524 125.108 92.3498 124.217 91.973C124.567 92.8752 124.758 93.8784 124.758 94.9499C124.758 96.8993 124.127 98.643 123.053 99.9661C124.127 101.267 124.758 102.99 124.758 104.939C124.758 106.057 124.551 107.107 124.171 108.049C125.074 107.653 126.08 107.437 127.152 107.437C129.02 107.437 130.672 108.095 131.919 109.216C133.187 108.095 134.858 107.437 136.727 107.437C138.595 107.437 140.247 108.095 141.494 109.216C142.762 108.095 144.433 107.437 146.302 107.437C147.326 107.437 148.285 107.635 149.148 107.998C148.794 107.082 148.6 106.053 148.6 104.939C148.6 100.644 151.759 97.4472 155.877 97.4472C156.901 97.4472 157.86 97.6451 158.723 98.0086C158.369 97.0922 158.175 96.064 158.175 94.9499C158.175 93.0206 158.812 91.313 159.887 90.0171ZM186.897 73.5726C186.131 73.5726 185.557 74.1719 185.557 74.9711V75.1709C185.557 75.97 186.131 76.5694 186.897 76.5694H187.089C187.855 76.5694 188.429 75.97 188.429 75.1709V74.9711C188.429 74.1719 187.855 73.5726 187.089 73.5726H186.897ZM177.322 83.562C176.556 83.562 175.982 84.1614 175.982 84.9606V85.1604C175.982 85.9595 176.556 86.5589 177.322 86.5589H177.514C178.28 86.5589 178.854 85.9595 178.854 85.1604V84.9606C178.854 84.1614 178.28 83.562 177.514 83.562H177.322ZM166.6 94.205C166.476 94.4179 166.407 94.6719 166.407 94.95V95.1498C166.407 95.4279 166.476 95.6818 166.599 95.8947C166.722 95.6818 166.792 95.4278 166.792 95.1497V94.9499C166.792 94.6718 166.723 94.4179 166.6 94.205ZM167.747 103.541C166.981 103.541 166.407 104.14 166.407 104.94V105.139C166.407 105.938 166.981 106.538 167.747 106.538H167.939C168.705 106.538 169.279 105.938 169.279 105.139V104.94C169.279 104.14 168.705 103.541 167.939 103.541H167.747ZM196.472 63.5831C195.706 63.5831 195.132 64.1824 195.132 64.9816V65.1814C195.132 65.9805 195.706 66.5799 196.472 66.5799H196.664C197.43 66.5799 198.004 65.9805 198.004 65.1814V64.9816C198.004 64.1824 197.43 63.5831 196.664 63.5831H196.472ZM177.322 113.531C176.556 113.531 175.982 114.13 175.982 114.929V115.129C175.982 115.928 176.556 116.527 177.322 116.527H177.514C178.28 116.527 178.854 115.928 178.854 115.129V114.929C178.854 114.13 178.28 113.531 177.514 113.531H177.322ZM186.897 113.531C186.131 113.531 185.557 114.13 185.557 114.929V115.129C185.557 115.928 186.131 116.527 186.897 116.527H187.089C187.855 116.527 188.429 115.928 188.429 115.129V114.929C188.429 114.13 187.855 113.531 187.089 113.531H186.897ZM196.472 103.541C195.706 103.541 195.132 104.14 195.132 104.94V105.139C195.132 105.938 195.706 106.538 196.472 106.538H196.664C197.43 106.538 198.004 105.938 198.004 105.139V104.94C198.004 104.14 197.43 103.541 196.664 103.541H196.472ZM216.769 84.9603C216.769 84.1612 217.343 83.5618 218.109 83.5618H218.301C219.067 83.5618 219.641 84.1612 219.641 84.9603V85.1601C219.641 85.9593 219.067 86.5587 218.301 86.5587H218.109C217.343 86.5587 216.769 85.9593 216.769 85.1601V84.9603ZM224.941 81.9835C225.291 82.8857 225.482 83.8888 225.482 84.9603C225.482 89.2558 222.418 92.5524 218.301 92.5524C217.248 92.5524 216.257 92.3498 215.366 91.973C215.716 92.8752 215.907 93.8783 215.907 94.9498C215.907 96.8993 215.276 98.6429 214.202 99.9661C215.276 101.267 215.907 102.99 215.907 104.939C215.907 106.057 215.7 107.107 215.32 108.049C216.223 107.653 217.23 107.437 218.301 107.437C220.169 107.437 221.821 108.095 223.068 109.216C224.336 108.095 226.007 107.437 227.876 107.437C229.744 107.437 231.396 108.095 232.643 109.216C233.911 108.095 235.582 107.437 237.451 107.437C238.475 107.437 239.434 107.635 240.297 107.998C239.943 107.082 239.749 106.053 239.749 104.939C239.749 100.644 242.908 97.4472 247.026 97.4472C248.05 97.4472 249.009 97.6451 249.872 98.0086C249.518 97.0922 249.324 96.0639 249.324 94.9498C249.324 93.0206 249.961 91.313 251.036 90.0171C249.961 88.7162 249.324 86.9793 249.324 84.9603C249.324 83.8886 249.52 82.8852 249.88 81.9829C249.015 82.3577 248.053 82.5629 247.026 82.5629C245.139 82.5629 243.453 81.9124 242.18 80.7749C240.938 81.8974 239.301 82.5629 237.451 82.5629C235.564 82.5629 233.878 81.9124 232.605 80.7749C231.363 81.8974 229.726 82.5629 227.876 82.5629C226.823 82.5629 225.832 82.3603 224.941 81.9835ZM226.344 114.929C226.344 114.13 226.918 113.53 227.684 113.53H227.876C228.642 113.53 229.216 114.13 229.216 114.929V115.129C229.216 115.928 228.642 116.527 227.876 116.527H227.684C226.918 116.527 226.344 115.928 226.344 115.129V114.929ZM255.069 84.9603C255.069 84.1612 255.643 83.5618 256.409 83.5618H256.601C257.367 83.5618 257.941 84.1612 257.941 84.9603V85.1601C257.941 85.9593 257.367 86.5587 256.601 86.5587H256.409C255.643 86.5587 255.069 85.9593 255.069 85.1601V84.9603ZM226.344 74.9709C226.344 74.1717 226.918 73.5723 227.684 73.5723H227.876C228.642 73.5723 229.216 74.1717 229.216 74.9709V75.1707C229.216 75.9698 228.642 76.5692 227.876 76.5692H227.684C226.918 76.5692 226.344 75.9698 226.344 75.1707V74.9709ZM235.919 74.9709C235.919 74.1717 236.493 73.5723 237.259 73.5723H237.451C238.217 73.5723 238.791 74.1717 238.791 74.9709V75.1707C238.791 75.9698 238.217 76.5692 237.451 76.5692H237.259C236.493 76.5692 235.919 75.9698 235.919 75.1707V74.9709ZM207.194 104.939C207.194 104.14 207.768 103.541 208.534 103.541H208.726C209.492 103.541 210.066 104.14 210.066 104.939V105.139C210.066 105.938 209.492 106.538 208.726 106.538H208.534C207.768 106.538 207.194 105.938 207.194 105.139V104.939ZM207.194 94.9498C207.194 94.1507 207.768 93.5513 208.534 93.5513H208.726C209.492 93.5513 210.066 94.1507 210.066 94.9498V95.1496C210.066 95.9488 209.492 96.5481 208.726 96.5481H208.534C207.768 96.5481 207.194 95.9488 207.194 95.1496V94.9498ZM216.769 114.929C216.769 114.13 217.343 113.53 218.109 113.53H218.301C219.067 113.53 219.641 114.13 219.641 114.929V115.129C219.641 115.928 219.067 116.527 218.301 116.527H218.109C217.343 116.527 216.769 115.928 216.769 115.129V114.929ZM255.069 94.9498C255.069 94.1507 255.643 93.5513 256.409 93.5513H256.601C257.367 93.5513 257.941 94.1507 257.941 94.9498V95.1496C257.941 95.9488 257.367 96.5481 256.601 96.5481H256.409C255.643 96.5481 255.069 95.9488 255.069 95.1496V94.9498ZM255.069 114.929C255.069 114.13 255.643 113.53 256.409 113.53H256.601C257.367 113.53 257.941 114.13 257.941 114.929V115.129C257.941 115.928 257.367 116.527 256.601 116.527H256.409C255.643 116.527 255.069 115.928 255.069 115.129V114.929ZM264.644 114.929C264.644 114.13 265.218 113.53 265.984 113.53H266.176C266.942 113.53 267.516 114.13 267.516 114.929V115.129C267.516 115.928 266.942 116.527 266.176 116.527H265.984C265.218 116.527 264.644 115.928 264.644 115.129V114.929ZM245.494 74.9709C245.494 74.1717 246.068 73.5723 246.834 73.5723H247.026C247.792 73.5723 248.366 74.1717 248.366 74.9709V75.1707C248.366 75.9698 247.792 76.5692 247.026 76.5692H246.834C246.068 76.5692 245.494 75.9698 245.494 75.1707V74.9709ZM245.494 104.939C245.494 104.14 246.068 103.541 246.834 103.541H247.026C247.792 103.541 248.366 104.14 248.366 104.939V105.139C248.366 105.938 247.792 106.538 247.026 106.538H246.834C246.068 106.538 245.494 105.938 245.494 105.139V104.939ZM235.919 114.929C235.919 114.13 236.493 113.53 237.259 113.53H237.451C238.217 113.53 238.791 114.13 238.791 114.929V115.129C238.791 115.928 238.217 116.527 237.451 116.527H237.259C236.493 116.527 235.919 115.928 235.919 115.129V114.929ZM274.219 104.939C274.219 104.14 274.793 103.541 275.559 103.541H275.751C276.517 103.541 277.091 104.14 277.091 104.939V105.139C277.091 105.938 276.517 106.538 275.751 106.538H275.559C274.793 106.538 274.219 105.938 274.219 105.139V104.939ZM264.644 84.9603C264.644 84.1612 265.218 83.5618 265.984 83.5618H266.176C266.942 83.5618 267.516 84.1612 267.516 84.9603V85.1601C267.516 85.9593 266.942 86.5587 266.176 86.5587H265.984C265.218 86.5587 264.644 85.9593 264.644 85.1601V84.9603ZM274.219 74.9709C274.219 74.1717 274.793 73.5723 275.559 73.5723H275.751C276.517 73.5723 277.091 74.1717 277.091 74.9709V75.1707C277.091 75.9698 276.517 76.5692 275.751 76.5692H275.559C274.793 76.5692 274.219 75.9698 274.219 75.1707V74.9709ZM343.712 84.9603C343.712 84.1612 344.286 83.5618 345.052 83.5618H345.244C346.01 83.5618 346.584 84.1612 346.584 84.9603V85.1601C346.584 85.9593 346.01 86.5587 345.244 86.5587H345.052C344.286 86.5587 343.712 85.9593 343.712 85.1601V84.9603ZM345.244 77.4682C341.127 77.4682 337.967 80.6649 337.967 84.9603C337.967 86.0745 338.161 87.1027 338.516 88.0191C337.653 87.6556 336.693 87.4577 335.669 87.4577C331.552 87.4577 328.392 90.6544 328.392 94.9498C328.392 96.0639 328.586 97.0921 328.941 98.0086C328.078 97.6451 327.118 97.4472 326.094 97.4472C321.977 97.4472 318.817 100.644 318.817 104.939C318.817 106.053 319.011 107.082 319.366 107.998C318.503 107.635 317.543 107.437 316.519 107.437C314.65 107.437 312.979 108.095 311.711 109.216C310.464 108.095 308.813 107.437 306.944 107.437C305.873 107.437 304.866 107.653 303.963 108.049C304.343 107.107 304.55 106.057 304.55 104.939C304.55 103.868 304.36 102.865 304.01 101.962C304.901 102.339 305.891 102.542 306.944 102.542C311.061 102.542 314.125 99.2453 314.125 94.9498C314.125 93.8783 313.935 92.8752 313.585 91.973C314.475 92.3498 315.466 92.5524 316.519 92.5524C320.636 92.5524 323.7 89.2558 323.7 84.9603C323.7 80.6649 320.636 77.4682 316.519 77.4682C315.448 77.4682 314.441 77.6847 313.538 78.0806C313.918 77.1386 314.125 76.0886 314.125 74.9709C314.125 70.6754 311.061 67.4788 306.944 67.4788C305.076 67.4788 303.404 68.1371 302.136 69.2578C300.889 68.1371 299.238 67.4788 297.369 67.4788C293.252 67.4788 290.092 70.6754 290.092 74.9709C290.092 76.085 290.286 77.1132 290.641 78.0296C289.778 77.6661 288.819 77.4682 287.794 77.4682C283.677 77.4682 280.517 80.6649 280.517 84.9603C280.517 89.4556 283.677 92.5524 287.794 92.5524C291.911 92.5524 294.975 89.2558 294.975 84.9603C294.975 83.8888 294.785 82.8857 294.435 81.9835C295.326 82.3603 296.316 82.5629 297.369 82.5629C299.219 82.5629 300.856 81.8974 302.098 80.7749C303.371 81.9124 305.057 82.5629 306.944 82.5629C307.971 82.5629 308.933 82.3577 309.798 81.9829C309.439 82.8852 309.242 83.8886 309.242 84.9603C309.242 86.0745 309.436 87.1027 309.791 88.0191C308.928 87.6556 307.969 87.4577 306.944 87.4577C302.827 87.4577 299.667 90.6544 299.667 94.9498C299.667 96.0639 299.861 97.0922 300.216 98.0086C299.353 97.6451 298.394 97.4472 297.369 97.4472C293.252 97.4472 290.092 100.644 290.092 104.939C290.092 109.435 293.252 112.531 297.369 112.531C298.396 112.531 299.358 112.326 300.223 111.951C299.864 112.854 299.667 113.857 299.667 114.929C299.667 116.948 300.305 118.685 301.38 119.986C300.305 121.281 299.667 122.989 299.667 124.918C299.667 126.032 299.861 127.061 300.216 127.977C299.353 127.614 298.394 127.416 297.369 127.416C295.501 127.416 293.829 128.074 292.561 129.195C291.314 128.074 289.663 127.416 287.794 127.416C286.723 127.416 285.716 127.632 284.813 128.028C285.193 127.086 285.4 126.036 285.4 124.918C285.4 120.623 282.336 117.426 278.219 117.426C274.102 117.426 270.942 120.623 270.942 124.918C270.942 129.414 274.102 132.51 278.219 132.51C279.246 132.51 280.208 132.305 281.073 131.93C280.714 132.833 280.517 133.836 280.517 134.908C280.517 139.403 283.677 142.5 287.794 142.5C289.644 142.5 291.281 141.834 292.523 140.712C293.796 141.849 295.482 142.5 297.369 142.5C301.486 142.5 304.55 139.203 304.55 134.908C304.55 133.836 304.36 132.833 304.01 131.931C304.901 132.308 305.891 132.51 306.944 132.51C311.061 132.51 314.125 129.214 314.125 124.918C314.125 123.847 313.935 122.844 313.585 121.941C314.475 122.318 315.466 122.521 316.519 122.521C320.636 122.521 323.7 119.224 323.7 114.929C323.7 113.857 323.51 112.854 323.159 111.952C324.05 112.329 325.041 112.531 326.094 112.531C330.211 112.531 333.275 109.235 333.275 104.939C333.275 103.868 333.085 102.865 332.734 101.962C333.625 102.339 334.616 102.542 335.669 102.542C339.786 102.542 342.85 99.2453 342.85 94.9498C342.85 93.8783 342.659 92.8752 342.309 91.973C343.2 92.3498 344.191 92.5524 345.244 92.5524C349.361 92.5524 352.425 89.2558 352.425 84.9603C352.425 83.8888 352.234 82.8857 351.884 81.9835C352.775 82.3603 353.766 82.5629 354.819 82.5629C358.936 82.5629 362 79.2663 362 74.9709C362 70.6754 358.936 67.4788 354.819 67.4788C350.702 67.4788 347.542 70.6754 347.542 74.9709C347.542 76.085 347.736 77.1132 348.091 78.0296C347.228 77.6661 346.268 77.4682 345.244 77.4682ZM334.137 94.9498C334.137 94.1507 334.711 93.5513 335.477 93.5513H335.669C336.435 93.5513 337.009 94.1507 337.009 94.9498V95.1496C337.009 95.9488 336.435 96.5481 335.669 96.5481H335.477C334.711 96.5481 334.137 95.9488 334.137 95.1496V94.9498ZM324.562 104.939C324.562 104.14 325.137 103.541 325.902 103.541H326.094C326.86 103.541 327.434 104.14 327.434 104.939V105.139C327.434 105.938 326.86 106.538 326.094 106.538H325.902C325.137 106.538 324.562 105.938 324.562 105.139V104.939ZM295.837 104.939C295.837 104.14 296.412 103.541 297.178 103.541H297.369C298.135 103.541 298.71 104.14 298.71 104.939V105.139C298.71 105.938 298.135 106.538 297.369 106.538H297.178C296.412 106.538 295.837 105.938 295.837 105.139V104.939ZM305.412 94.9498C305.412 94.1507 305.987 93.5513 306.753 93.5513H306.944C307.71 93.5513 308.285 94.1507 308.285 94.9498V95.1496C308.285 95.9488 307.71 96.5481 306.944 96.5481H306.753C305.987 96.5481 305.412 95.9488 305.412 95.1496V94.9498ZM314.987 84.9603C314.987 84.1612 315.562 83.5618 316.328 83.5618H316.519C317.285 83.5618 317.86 84.1612 317.86 84.9603V85.1601C317.86 85.9593 317.285 86.5587 316.519 86.5587H316.328C315.562 86.5587 314.987 85.9593 314.987 85.1601V84.9603ZM314.987 114.929C314.987 114.13 315.562 113.53 316.328 113.53H316.519C317.285 113.53 317.86 114.13 317.86 114.929V115.129C317.86 115.928 317.285 116.527 316.519 116.527H316.328C315.562 116.527 314.987 115.928 314.987 115.129V114.929ZM305.412 74.9709C305.412 74.1717 305.987 73.5723 306.753 73.5723H306.944C307.71 73.5723 308.285 74.1717 308.285 74.9709V75.1707C308.285 75.9698 307.71 76.5692 306.944 76.5692H306.753C305.987 76.5692 305.412 75.9698 305.412 75.1707V74.9709ZM295.837 74.9709C295.837 74.1717 296.412 73.5723 297.178 73.5723H297.369C298.135 73.5723 298.71 74.1717 298.71 74.9709V75.1707C298.71 75.9698 298.135 76.5692 297.369 76.5692H297.178C296.412 76.5692 295.837 75.9698 295.837 75.1707V74.9709ZM286.262 84.9603C286.262 84.1612 286.837 83.5618 287.603 83.5618H287.794C288.56 83.5618 289.135 84.1612 289.135 84.9603V85.1601C289.135 85.9593 288.56 86.5587 287.794 86.5587H287.603C286.837 86.5587 286.262 85.9593 286.262 85.1601V84.9603ZM353.287 74.9709C353.287 74.1717 353.861 73.5723 354.627 73.5723H354.819C355.585 73.5723 356.159 74.1717 356.159 74.9709V75.1707C356.159 75.9698 355.585 76.5692 354.819 76.5692H354.627C353.861 76.5692 353.287 75.9698 353.287 75.1707V74.9709ZM305.412 124.918C305.412 124.119 305.987 123.52 306.753 123.52H306.944C307.71 123.52 308.285 124.119 308.285 124.918V125.118C308.285 125.917 307.71 126.517 306.944 126.517H306.753C305.987 126.517 305.412 125.917 305.412 125.118V124.918ZM295.837 134.908C295.837 134.109 296.412 133.509 297.178 133.509H297.369C298.135 133.509 298.71 134.109 298.71 134.908V135.108C298.71 135.907 298.135 136.506 297.369 136.506H297.178C296.412 136.506 295.837 135.907 295.837 135.108V134.908ZM286.262 134.908C286.262 134.109 286.837 133.509 287.603 133.509H287.794C288.56 133.509 289.135 134.109 289.135 134.908V135.108C289.135 135.907 288.56 136.506 287.794 136.506H287.603C286.837 136.506 286.262 135.907 286.262 135.108V134.908ZM276.687 124.918C276.687 124.119 277.262 123.52 278.028 123.52H278.219C278.985 123.52 279.56 124.119 279.56 124.918V125.118C279.56 125.917 278.985 126.517 278.219 126.517H278.028C277.262 126.517 276.687 125.917 276.687 125.118V124.918ZM305.412 114.929C305.412 114.13 305.987 113.53 306.753 113.53H306.944C307.71 113.53 308.285 114.13 308.285 114.929V115.129C308.285 115.928 307.71 116.527 306.944 116.527H306.753C305.987 116.527 305.412 115.928 305.412 115.129V114.929ZM125.62 84.9604C125.62 84.1612 126.194 83.5619 126.96 83.5619H127.152C127.918 83.5619 128.492 84.1612 128.492 84.9604V85.1602C128.492 85.9593 127.918 86.5587 127.152 86.5587H126.96C126.194 86.5587 125.62 85.9593 125.62 85.1602V84.9604ZM135.195 114.929C135.195 114.13 135.769 113.53 136.535 113.53H136.727C137.493 113.53 138.067 114.13 138.067 114.929V115.129C138.067 115.928 137.493 116.527 136.727 116.527H136.535C135.769 116.527 135.195 115.928 135.195 115.129V114.929ZM163.92 84.9604C163.92 84.1612 164.494 83.5619 165.26 83.5619H165.452C166.218 83.5619 166.792 84.1612 166.792 84.9604V85.1602C166.792 85.9593 166.218 86.5587 165.452 86.5587H165.26C164.494 86.5587 163.92 85.9593 163.92 85.1602V84.9604ZM135.195 74.9709C135.195 74.1717 135.769 73.5724 136.535 73.5724H136.727C137.493 73.5724 138.067 74.1717 138.067 74.9709V75.1707C138.067 75.9699 137.493 76.5692 136.727 76.5692H136.535C135.769 76.5692 135.195 75.9699 135.195 75.1707V74.9709ZM144.77 74.9709C144.77 74.1717 145.344 73.5724 146.11 73.5724H146.302C147.068 73.5724 147.642 74.1717 147.642 74.9709V75.1707C147.642 75.9699 147.068 76.5692 146.302 76.5692H146.11C145.344 76.5692 144.77 75.9699 144.77 75.1707V74.9709ZM154.345 74.9709C154.345 74.1717 154.919 73.5724 155.685 73.5724H155.877C156.643 73.5724 157.217 74.1717 157.217 74.9709V75.1707C157.217 75.9699 156.643 76.5692 155.877 76.5692H155.685C154.919 76.5692 154.345 75.9699 154.345 75.1707V74.9709ZM116.045 104.939C116.045 104.14 116.619 103.541 117.385 103.541H117.577C118.343 103.541 118.917 104.14 118.917 104.939V105.139C118.917 105.938 118.343 106.538 117.577 106.538H117.385C116.619 106.538 116.045 105.938 116.045 105.139V104.939ZM116.045 94.9499C116.045 94.1507 116.619 93.5513 117.385 93.5513H117.577C118.343 93.5513 118.917 94.1507 118.917 94.9499V95.1497C118.917 95.9488 118.343 96.5482 117.577 96.5482H117.385C116.619 96.5482 116.045 95.9488 116.045 95.1497V94.9499ZM125.62 114.929C125.62 114.13 126.194 113.53 126.96 113.53H127.152C127.918 113.53 128.492 114.13 128.492 114.929V115.129C128.492 115.928 127.918 116.527 127.152 116.527H126.96C126.194 116.527 125.62 115.928 125.62 115.129V114.929ZM144.77 114.929C144.77 114.13 145.344 113.53 146.11 113.53H146.302C147.068 113.53 147.642 114.13 147.642 114.929V115.129C147.642 115.928 147.068 116.527 146.302 116.527H146.11C145.344 116.527 144.77 115.928 144.77 115.129V114.929ZM106.47 104.939C106.47 104.14 107.044 103.541 107.81 103.541H108.002C108.768 103.541 109.342 104.14 109.342 104.939V105.139C109.342 105.938 108.768 106.538 108.002 106.538H107.81C107.044 106.538 106.47 105.938 106.47 105.139V104.939ZM96.8949 114.929C96.8949 114.13 97.4694 113.53 98.2354 113.53H98.4269C99.1929 113.53 99.7674 114.13 99.7674 114.929V115.129C99.7674 115.928 99.1929 116.527 98.4269 116.527H98.2354C97.4694 116.527 96.8949 115.928 96.8949 115.129V114.929ZM87.3199 124.918C87.3199 124.119 87.8944 123.52 88.6604 123.52H88.8519C89.6179 123.52 90.1924 124.119 90.1924 124.918V125.118C90.1924 125.917 89.6179 126.517 88.8519 126.517H88.6604C87.8944 126.517 87.3199 125.917 87.3199 125.118V124.918ZM77.745 134.908C77.745 134.109 78.3195 133.509 79.0855 133.509H79.277C80.043 133.509 80.6175 134.109 80.6175 134.908V135.108C80.6175 135.907 80.043 136.506 79.277 136.506H79.0855C78.3195 136.506 77.745 135.907 77.745 135.108V134.908ZM116.045 74.9709C116.045 74.1717 116.619 73.5724 117.385 73.5724H117.577C118.343 73.5724 118.917 74.1717 118.917 74.9709V75.1707C118.917 75.9699 118.343 76.5692 117.577 76.5692H117.385C116.619 76.5692 116.045 75.9699 116.045 75.1707V74.9709ZM154.345 104.939C154.345 104.14 154.919 103.541 155.685 103.541H155.877C156.643 103.541 157.217 104.14 157.217 104.939V105.139C157.217 105.938 156.643 106.538 155.877 106.538H155.685C154.919 106.538 154.345 105.938 154.345 105.139V104.939Z" fill="white"/>
</svg>
