<svg width="434" height="190" viewBox="0 0 434 190" fill="none" xmlns="http://www.w3.org/2000/svg">
<rect width="434" height="190" fill="black"/>
<path fill-rule="evenodd" clip-rule="evenodd" d="M208.059 48.3444C207.965 47.9222 208.059 47.5 208.527 47.5H209.743C210.118 47.5 210.399 47.7111 210.492 48.1333L212.645 55.093L214.798 48.1333C214.892 47.7111 215.172 47.5 215.547 47.5H216.764C217.232 47.5 217.325 47.9222 217.232 48.3444L214.424 57.4222C214.33 57.8444 214.049 58.0556 213.675 58.0556H212.832H212.458H211.616C211.241 58.0556 210.96 57.8444 210.867 57.4222L208.059 48.3444ZM189.338 69.4556C189.245 69.0333 189.338 68.6111 189.806 68.6111H191.023C191.397 68.6111 191.678 68.8222 191.772 69.2444L193.925 76.2041L196.078 69.2444C196.171 68.8222 196.452 68.6111 196.826 68.6111H198.043C198.511 68.6111 198.605 69.0333 198.511 69.4556L195.703 78.5333C195.61 78.9556 195.329 79.1667 194.954 79.1667H194.112H193.738H192.895C192.521 79.1667 192.24 78.9556 192.146 78.5333L189.338 69.4556ZM179.978 80.0111C179.884 79.5889 179.978 79.1667 180.446 79.1667H181.663C182.037 79.1667 182.318 79.3778 182.412 79.8L184.565 86.7596L186.717 79.8C186.811 79.3778 187.092 79.1667 187.466 79.1667H188.683C189.151 79.1667 189.245 79.5889 189.151 80.0111L186.343 89.0889C186.249 89.5111 185.969 89.7222 185.594 89.7222H184.752H184.377H183.535C183.161 89.7222 182.88 89.5111 182.786 89.0889L179.978 80.0111ZM170.618 90.5667C170.524 90.1444 170.618 89.7222 171.086 89.7222H172.303C172.677 89.7222 172.958 89.9333 173.052 90.3556L175.204 97.3152L177.357 90.3556C177.451 89.9333 177.732 89.7222 178.106 89.7222H179.323C179.791 89.7222 179.884 90.1444 179.791 90.5667L176.983 99.6444C176.889 100.067 176.608 100.278 176.234 100.278H175.392H175.017H174.175C173.8 100.278 173.52 100.067 173.426 99.6444L170.618 90.5667ZM170.618 101.122C170.524 100.7 170.618 100.278 171.086 100.278H172.303C172.677 100.278 172.958 100.489 173.052 100.911L175.204 107.871L177.357 100.911C177.451 100.489 177.732 100.278 178.106 100.278H179.323C179.791 100.278 179.884 100.7 179.791 101.122L176.983 110.2C176.889 110.622 176.608 110.833 176.234 110.833H175.392H175.017H174.175C173.8 110.833 173.52 110.622 173.426 110.2L170.618 101.122ZM198.698 58.9C198.605 58.4778 198.698 58.0556 199.166 58.0556H200.383C200.758 58.0556 201.038 58.2667 201.132 58.6889L203.285 65.6485L205.438 58.6889C205.531 58.2667 205.812 58.0556 206.187 58.0556H207.403C207.871 58.0556 207.965 58.4778 207.871 58.9L205.063 67.9778C204.97 68.4 204.689 68.6111 204.315 68.6111H203.472H203.098H202.255C201.881 68.6111 201.6 68.4 201.507 67.9778L198.698 58.9ZM179.978 111.678C179.884 111.256 179.978 110.833 180.446 110.833H181.663C182.037 110.833 182.318 111.044 182.412 111.467L184.565 118.426L186.717 111.467C186.811 111.044 187.092 110.833 187.466 110.833H188.683C189.151 110.833 189.245 111.256 189.151 111.678L186.343 120.756C186.249 121.178 185.969 121.389 185.594 121.389H184.752H184.377H183.535C183.161 121.389 182.88 121.178 182.786 120.756L179.978 111.678ZM189.338 111.678C189.245 111.256 189.338 110.833 189.806 110.833H191.023C191.397 110.833 191.678 111.044 191.772 111.467L193.925 118.426L196.078 111.467C196.171 111.044 196.452 110.833 196.826 110.833H198.043C198.511 110.833 198.605 111.256 198.511 111.678L195.703 120.756C195.61 121.178 195.329 121.389 194.954 121.389H194.112H193.738H192.895C192.521 121.389 192.24 121.178 192.146 120.756L189.338 111.678ZM198.698 101.122C198.605 100.7 198.698 100.278 199.166 100.278H200.383C200.758 100.278 201.038 100.489 201.132 100.911L203.285 107.871L205.438 100.911C205.531 100.489 205.812 100.278 206.187 100.278H207.403C207.871 100.278 207.965 100.7 207.871 101.122L205.063 110.2C204.97 110.622 204.689 110.833 204.315 110.833H203.472H203.098H202.255C201.881 110.833 201.6 110.622 201.507 110.2L198.698 101.122ZM221.935 79.1666C221.467 79.1666 221.373 79.5889 221.467 80.0111L224.275 89.0889C224.368 89.5111 224.649 89.7222 225.024 89.7222H225.866H226.24H227.083C227.457 89.7222 227.738 89.5111 227.832 89.0889L230.64 80.0111C230.733 79.5889 230.64 79.1666 230.172 79.1666H228.955C228.58 79.1666 228.3 79.3777 228.206 79.8L226.053 86.7596L223.9 79.8C223.807 79.3777 223.526 79.1666 223.152 79.1666H221.935ZM231.295 110.833C230.827 110.833 230.733 111.256 230.827 111.678L233.635 120.756C233.729 121.178 234.009 121.389 234.384 121.389H235.226H235.601H236.443C236.817 121.389 237.098 121.178 237.192 120.756L240 111.678C240.093 111.256 240 110.833 239.532 110.833H238.315C237.941 110.833 237.66 111.044 237.566 111.467L235.413 118.426L233.261 111.467C233.167 111.044 232.886 110.833 232.512 110.833H231.295ZM259.375 79.1666C258.907 79.1666 258.814 79.5889 258.907 80.0111L261.715 89.0889C261.809 89.5111 262.09 89.7222 262.464 89.7222H263.307H263.681H264.524C264.898 89.7222 265.179 89.5111 265.272 89.0889L268.08 80.0111C268.174 79.5889 268.08 79.1666 267.612 79.1666H266.396C266.021 79.1666 265.74 79.3777 265.647 79.8L263.494 86.7596L261.341 79.8C261.247 79.3777 260.967 79.1666 260.592 79.1666H259.375ZM231.295 68.6111C230.827 68.6111 230.733 69.0333 230.827 69.4555L233.635 78.5333C233.729 78.9555 234.009 79.1666 234.384 79.1666H235.226H235.601H236.443C236.817 79.1666 237.098 78.9555 237.192 78.5333L240 69.4555C240.093 69.0333 240 68.6111 239.532 68.6111H238.315C237.941 68.6111 237.66 68.8222 237.566 69.2444L235.413 76.2041L233.261 69.2444C233.167 68.8222 232.886 68.6111 232.512 68.6111H231.295ZM240.655 68.6111C240.187 68.6111 240.093 69.0333 240.187 69.4555L242.995 78.5333C243.089 78.9555 243.37 79.1666 243.744 79.1666H244.586H244.961H245.803C246.178 79.1666 246.458 78.9555 246.552 78.5333L249.36 69.4555C249.454 69.0333 249.36 68.6111 248.892 68.6111H247.675C247.301 68.6111 247.02 68.8222 246.926 69.2444L244.774 76.2041L242.621 69.2444C242.527 68.8222 242.246 68.6111 241.872 68.6111H240.655ZM212.574 100.278C212.106 100.278 212.013 100.7 212.106 101.122L214.915 110.2C215.008 110.622 215.289 110.833 215.663 110.833H216.506H216.88H217.723C218.097 110.833 218.378 110.622 218.471 110.2L221.279 101.122C221.373 100.7 221.279 100.278 220.811 100.278H219.595C219.22 100.278 218.939 100.489 218.846 100.911L216.693 107.871L214.54 100.911C214.447 100.489 214.166 100.278 213.791 100.278H212.574ZM212.574 89.7222C212.106 89.7222 212.013 90.1444 212.106 90.5666L214.915 99.6444C215.008 100.067 215.289 100.278 215.663 100.278H216.506H216.88H217.723C218.097 100.278 218.378 100.067 218.471 99.6444L221.279 90.5666C221.373 90.1444 221.279 89.7222 220.811 89.7222H219.595C219.22 89.7222 218.939 89.9333 218.846 90.3555L216.693 97.3152L214.54 90.3555C214.447 89.9333 214.166 89.7222 213.791 89.7222H212.574ZM221.935 110.833C221.467 110.833 221.373 111.256 221.467 111.678L224.275 120.756C224.368 121.178 224.649 121.389 225.024 121.389H225.866H226.24H227.083C227.457 121.389 227.738 121.178 227.832 120.756L230.64 111.678C230.733 111.256 230.64 110.833 230.172 110.833H228.955C228.58 110.833 228.3 111.044 228.206 111.467L226.053 118.426L223.9 111.467C223.807 111.044 223.526 110.833 223.152 110.833H221.935ZM259.375 89.7222C258.907 89.7222 258.814 90.1444 258.907 90.5666L261.715 99.6444C261.809 100.067 262.09 100.278 262.464 100.278H263.307H263.681H264.524C264.898 100.278 265.179 100.067 265.272 99.6444L268.08 90.5666C268.174 90.1444 268.08 89.7222 267.612 89.7222H266.396C266.021 89.7222 265.74 89.9333 265.647 90.3555L263.494 97.3151L261.341 90.3555C261.247 89.9333 260.967 89.7222 260.592 89.7222H259.375ZM259.375 110.833C258.907 110.833 258.814 111.256 258.907 111.678L261.715 120.756C261.809 121.178 262.09 121.389 262.464 121.389H263.307H263.681H264.524C264.898 121.389 265.179 121.178 265.272 120.756L268.08 111.678C268.174 111.256 268.08 110.833 267.612 110.833H266.396C266.021 110.833 265.74 111.044 265.647 111.467L263.494 118.426L261.341 111.467C261.247 111.044 260.967 110.833 260.592 110.833H259.375ZM268.736 110.833C268.268 110.833 268.174 111.256 268.268 111.678L271.076 120.756C271.169 121.178 271.45 121.389 271.825 121.389H272.667H273.041H273.884C274.258 121.389 274.539 121.178 274.633 120.756L277.441 111.678C277.534 111.256 277.441 110.833 276.973 110.833H275.756C275.381 110.833 275.101 111.044 275.007 111.467L272.854 118.426L270.701 111.467C270.608 111.044 270.327 110.833 269.952 110.833H268.736ZM250.015 68.6111C249.547 68.6111 249.454 69.0333 249.547 69.4555L252.355 78.5333C252.449 78.9555 252.73 79.1666 253.104 79.1666H253.947H254.321H255.163C255.538 79.1666 255.819 78.9555 255.912 78.5333L258.72 69.4555C258.814 69.0333 258.72 68.6111 258.252 68.6111H257.035C256.661 68.6111 256.38 68.8222 256.287 69.2444L254.134 76.2041L251.981 69.2444C251.887 68.8222 251.606 68.6111 251.232 68.6111H250.015ZM250.015 100.278C249.547 100.278 249.454 100.7 249.547 101.122L252.355 110.2C252.449 110.622 252.73 110.833 253.104 110.833H253.947H254.321H255.163C255.538 110.833 255.819 110.622 255.912 110.2L258.72 101.122C258.814 100.7 258.72 100.278 258.252 100.278H257.035C256.661 100.278 256.38 100.489 256.287 100.911L254.134 107.871L251.981 100.911C251.887 100.489 251.606 100.278 251.232 100.278H250.015ZM240.655 110.833C240.187 110.833 240.093 111.256 240.187 111.678L242.995 120.756C243.089 121.178 243.37 121.389 243.744 121.389H244.586H244.961H245.803C246.178 121.389 246.458 121.178 246.552 120.756L249.36 111.678C249.454 111.256 249.36 110.833 248.892 110.833H247.675C247.301 110.833 247.02 111.044 246.926 111.467L244.774 118.426L242.621 111.467C242.527 111.044 242.246 110.833 241.872 110.833H240.655ZM278.096 100.278C277.628 100.278 277.534 100.7 277.628 101.122L280.436 110.2C280.529 110.622 280.81 110.833 281.185 110.833H282.027H282.402H283.244C283.618 110.833 283.899 110.622 283.993 110.2L286.801 101.122C286.894 100.7 286.801 100.278 286.333 100.278H285.116C284.742 100.278 284.461 100.489 284.367 100.911L282.214 107.871L280.061 100.911C279.968 100.489 279.687 100.278 279.313 100.278H278.096ZM268.736 79.1666C268.268 79.1666 268.174 79.5889 268.268 80.0111L271.076 89.0889C271.169 89.5111 271.45 89.7222 271.825 89.7222H272.667H273.041H273.884C274.258 89.7222 274.539 89.5111 274.633 89.0889L277.441 80.0111C277.534 79.5889 277.441 79.1666 276.973 79.1666H275.756C275.381 79.1666 275.101 79.3777 275.007 79.8L272.854 86.7596L270.701 79.8C270.608 79.3777 270.327 79.1666 269.952 79.1666H268.736ZM278.096 68.6111C277.628 68.6111 277.534 69.0333 277.628 69.4555L280.436 78.5333C280.529 78.9555 280.81 79.1666 281.185 79.1666H282.027H282.402H283.244C283.618 79.1666 283.899 78.9555 283.993 78.5333L286.801 69.4555C286.894 69.0333 286.801 68.6111 286.333 68.6111H285.116C284.742 68.6111 284.461 68.8222 284.367 69.2444L282.214 76.204L280.061 69.2444C279.968 68.8222 279.687 68.6111 279.313 68.6111H278.096ZM343.902 79.1666C343.434 79.1666 343.341 79.5889 343.434 80.0111L346.242 89.0889C346.336 89.5111 346.617 89.7222 346.991 89.7222H347.834H348.208H349.05C349.425 89.7222 349.706 89.5111 349.799 89.0889L352.607 80.0111C352.701 79.5889 352.607 79.1666 352.139 79.1666H350.922C350.548 79.1666 350.267 79.3777 350.174 79.8L348.021 86.7596L345.868 79.8C345.774 79.3777 345.493 79.1666 345.119 79.1666H343.902ZM334.542 89.7222C334.074 89.7222 333.98 90.1444 334.074 90.5666L336.882 99.6444C336.976 100.067 337.257 100.278 337.631 100.278H338.473H338.848H339.69C340.065 100.278 340.345 100.067 340.439 99.6444L343.247 90.5666C343.341 90.1444 343.247 89.7222 342.779 89.7222H341.562C341.188 89.7222 340.907 89.9333 340.813 90.3555L338.661 97.3152L336.508 90.3555C336.414 89.9333 336.133 89.7222 335.759 89.7222H334.542ZM325.182 100.278C324.714 100.278 324.62 100.7 324.714 101.122L327.522 110.2C327.616 110.622 327.896 110.833 328.271 110.833H329.113H329.488H330.33C330.704 110.833 330.985 110.622 331.079 110.2L333.887 101.122C333.98 100.7 333.887 100.278 333.419 100.278H332.202C331.828 100.278 331.547 100.489 331.453 100.911L329.3 107.871L327.148 100.911C327.054 100.489 326.773 100.278 326.399 100.278H325.182ZM297.101 100.278C296.633 100.278 296.54 100.7 296.633 101.122L299.441 110.2C299.535 110.622 299.816 110.833 300.19 110.833H301.033H301.407H302.249C302.624 110.833 302.905 110.622 302.998 110.2L305.806 101.122C305.9 100.7 305.806 100.278 305.338 100.278H304.121C303.747 100.278 303.466 100.489 303.373 100.911L301.22 107.871L299.067 100.911C298.973 100.489 298.693 100.278 298.318 100.278H297.101ZM306.461 89.7222C305.993 89.7222 305.9 90.1444 305.993 90.5666L308.802 99.6444C308.895 100.067 309.176 100.278 309.55 100.278H310.393H310.767H311.61C311.984 100.278 312.265 100.067 312.358 99.6444L315.166 90.5666C315.26 90.1444 315.166 89.7222 314.698 89.7222H313.482C313.107 89.7222 312.826 89.9333 312.733 90.3555L310.58 97.3152L308.427 90.3555C308.334 89.9333 308.053 89.7222 307.678 89.7222H306.461ZM315.822 79.1666C315.354 79.1666 315.26 79.5889 315.354 80.0111L318.162 89.0889C318.255 89.5111 318.536 89.7222 318.911 89.7222H319.753H320.127H320.97C321.344 89.7222 321.625 89.5111 321.719 89.0889L324.527 80.0111C324.62 79.5889 324.527 79.1666 324.059 79.1666H322.842C322.467 79.1666 322.187 79.3777 322.093 79.8L319.94 86.7596L317.787 79.8C317.694 79.3777 317.413 79.1666 317.038 79.1666H315.822ZM315.822 110.833C315.354 110.833 315.26 111.256 315.354 111.678L318.162 120.756C318.255 121.178 318.536 121.389 318.911 121.389H319.753H320.127H320.97C321.344 121.389 321.625 121.178 321.719 120.756L324.527 111.678C324.62 111.256 324.527 110.833 324.059 110.833H322.842C322.467 110.833 322.187 111.044 322.093 111.467L319.94 118.426L317.787 111.467C317.694 111.044 317.413 110.833 317.038 110.833H315.822ZM306.461 68.6111C305.993 68.6111 305.9 69.0333 305.993 69.4555L308.802 78.5333C308.895 78.9555 309.176 79.1666 309.55 79.1666H310.393H310.767H311.61C311.984 79.1666 312.265 78.9555 312.358 78.5333L315.166 69.4555C315.26 69.0333 315.166 68.6111 314.698 68.6111H313.482C313.107 68.6111 312.826 68.8222 312.733 69.2444L310.58 76.2041L308.427 69.2444C308.334 68.8222 308.053 68.6111 307.678 68.6111H306.461ZM297.101 68.6111C296.633 68.6111 296.54 69.0333 296.633 69.4555L299.441 78.5333C299.535 78.9555 299.816 79.1666 300.19 79.1666H301.033H301.407H302.249C302.624 79.1666 302.905 78.9555 302.998 78.5333L305.806 69.4555C305.9 69.0333 305.806 68.6111 305.338 68.6111H304.121C303.747 68.6111 303.466 68.8222 303.373 69.2444L301.22 76.2041L299.067 69.2444C298.973 68.8222 298.693 68.6111 298.318 68.6111H297.101ZM287.741 79.1666C287.273 79.1666 287.179 79.5889 287.273 80.0111L290.081 89.0889C290.175 89.5111 290.456 89.7222 290.83 89.7222H291.672H292.047H292.889C293.264 89.7222 293.544 89.5111 293.638 89.0889L296.446 80.0111C296.54 79.5889 296.446 79.1666 295.978 79.1666H294.761C294.387 79.1666 294.106 79.3777 294.012 79.8L291.86 86.7596L289.707 79.8C289.613 79.3777 289.332 79.1666 288.958 79.1666H287.741ZM353.262 68.6111C352.794 68.6111 352.701 69.0333 352.794 69.4555L355.602 78.5333C355.696 78.9555 355.977 79.1666 356.351 79.1666H357.194H357.568H358.411C358.785 79.1666 359.066 78.9555 359.159 78.5333L361.967 69.4555C362.061 69.0333 361.967 68.6111 361.499 68.6111H360.283C359.908 68.6111 359.627 68.8222 359.534 69.2444L357.381 76.2041L355.228 69.2444C355.134 68.8222 354.854 68.6111 354.479 68.6111H353.262ZM306.461 121.389C305.993 121.389 305.9 121.811 305.993 122.233L308.802 131.311C308.895 131.733 309.176 131.944 309.55 131.944H310.393H310.767H311.61C311.984 131.944 312.265 131.733 312.358 131.311L315.166 122.233C315.26 121.811 315.166 121.389 314.698 121.389H313.482C313.107 121.389 312.826 121.6 312.733 122.022L310.58 128.982L308.427 122.022C308.334 121.6 308.053 121.389 307.678 121.389H306.461ZM297.101 131.944C296.633 131.944 296.54 132.367 296.633 132.789L299.441 141.867C299.535 142.289 299.816 142.5 300.19 142.5H301.033H301.407H302.249C302.624 142.5 302.905 142.289 302.998 141.867L305.806 132.789C305.9 132.367 305.806 131.944 305.338 131.944H304.121C303.747 131.944 303.466 132.156 303.373 132.578L301.22 139.537L299.067 132.578C298.973 132.156 298.693 131.944 298.318 131.944H297.101ZM287.741 131.944C287.273 131.944 287.179 132.367 287.273 132.789L290.081 141.867C290.175 142.289 290.456 142.5 290.83 142.5H291.672H292.047H292.889C293.264 142.5 293.544 142.289 293.638 141.867L296.446 132.789C296.54 132.367 296.446 131.944 295.978 131.944H294.761C294.387 131.944 294.106 132.156 294.012 132.578L291.86 139.537L289.707 132.578C289.613 132.156 289.332 131.944 288.958 131.944H287.741ZM278.381 121.389C277.913 121.389 277.819 121.811 277.913 122.233L280.721 131.311C280.815 131.733 281.095 131.944 281.47 131.944H282.312H282.687H283.529C283.903 131.944 284.184 131.733 284.278 131.311L287.086 122.233C287.179 121.811 287.086 121.389 286.618 121.389H285.401C285.027 121.389 284.746 121.6 284.652 122.022L282.499 128.982L280.347 122.022C280.253 121.6 279.972 121.389 279.598 121.389H278.381ZM306.461 110.833C305.993 110.833 305.9 111.256 305.993 111.678L308.802 120.756C308.895 121.178 309.176 121.389 309.55 121.389H310.393H310.767H311.61C311.984 121.389 312.265 121.178 312.358 120.756L315.166 111.678C315.26 111.256 315.166 110.833 314.698 110.833H313.482C313.107 110.833 312.826 111.044 312.733 111.467L310.58 118.426L308.427 111.467C308.334 111.044 308.053 110.833 307.678 110.833H306.461ZM119.302 79.1667C118.834 79.1667 118.74 79.5889 118.834 80.0111L121.642 89.0889C121.735 89.5111 122.016 89.7222 122.39 89.7222H123.233H123.607H124.45C124.824 89.7222 125.105 89.5111 125.199 89.0889L128.007 80.0111C128.1 79.5889 128.007 79.1667 127.539 79.1667H126.322C125.947 79.1667 125.667 79.3778 125.573 79.8L123.42 86.7596L121.267 79.8C121.174 79.3778 120.893 79.1667 120.518 79.1667H119.302ZM128.662 110.833C128.194 110.833 128.1 111.256 128.194 111.678L131.002 120.756C131.095 121.178 131.376 121.389 131.751 121.389H132.593H132.967H133.81C134.184 121.389 134.465 121.178 134.559 120.756L137.367 111.678C137.46 111.256 137.367 110.833 136.899 110.833H135.682C135.308 110.833 135.027 111.044 134.933 111.467L132.78 118.426L130.627 111.467C130.534 111.044 130.253 110.833 129.879 110.833H128.662ZM156.742 79.1667C156.274 79.1667 156.181 79.5889 156.274 80.0111L159.082 89.0889C159.176 89.5111 159.457 89.7222 159.831 89.7222H160.674H161.048H161.89C162.265 89.7222 162.546 89.5111 162.639 89.0889L165.447 80.0111C165.541 79.5889 165.447 79.1667 164.979 79.1667H163.763C163.388 79.1667 163.107 79.3778 163.014 79.8L160.861 86.7596L158.708 79.8C158.614 79.3778 158.334 79.1667 157.959 79.1667H156.742ZM128.662 68.6111C128.194 68.6111 128.1 69.0333 128.194 69.4556L131.002 78.5333C131.095 78.9556 131.376 79.1667 131.751 79.1667H132.593H132.967H133.81C134.184 79.1667 134.465 78.9556 134.559 78.5333L137.367 69.4556C137.46 69.0333 137.367 68.6111 136.899 68.6111H135.682C135.308 68.6111 135.027 68.8222 134.933 69.2444L132.78 76.2041L130.627 69.2444C130.534 68.8222 130.253 68.6111 129.879 68.6111H128.662ZM138.022 68.6111C137.554 68.6111 137.46 69.0333 137.554 69.4556L140.362 78.5333C140.456 78.9556 140.736 79.1667 141.111 79.1667H141.953H142.328H143.17C143.545 79.1667 143.825 78.9556 143.919 78.5333L146.727 69.4556C146.821 69.0333 146.727 68.6111 146.259 68.6111H145.042C144.668 68.6111 144.387 68.8222 144.293 69.2444L142.14 76.2041L139.988 69.2444C139.894 68.8222 139.613 68.6111 139.239 68.6111H138.022ZM147.382 68.6111C146.914 68.6111 146.821 69.0333 146.914 69.4556L149.722 78.5333C149.816 78.9556 150.097 79.1667 150.471 79.1667H151.313H151.688H152.53C152.905 79.1667 153.186 78.9556 153.279 78.5333L156.087 69.4556C156.181 69.0333 156.087 68.6111 155.619 68.6111H154.402C154.028 68.6111 153.747 68.8222 153.654 69.2444L151.501 76.2041L149.348 69.2444C149.254 68.8222 148.973 68.6111 148.599 68.6111H147.382ZM109.941 100.278C109.473 100.278 109.38 100.7 109.473 101.122L112.281 110.2C112.375 110.622 112.656 110.833 113.03 110.833H113.873H114.247H115.09C115.464 110.833 115.745 110.622 115.838 110.2L118.646 101.122C118.74 100.7 118.646 100.278 118.178 100.278H116.962C116.587 100.278 116.306 100.489 116.213 100.911L114.06 107.871L111.907 100.911C111.813 100.489 111.533 100.278 111.158 100.278H109.941ZM109.941 89.7222C109.473 89.7222 109.38 90.1444 109.473 90.5667L112.281 99.6444C112.375 100.067 112.656 100.278 113.03 100.278H113.873H114.247H115.09C115.464 100.278 115.745 100.067 115.838 99.6444L118.646 90.5667C118.74 90.1444 118.646 89.7222 118.178 89.7222H116.962C116.587 89.7222 116.306 89.9333 116.213 90.3556L114.06 97.3152L111.907 90.3556C111.813 89.9333 111.533 89.7222 111.158 89.7222H109.941ZM119.302 110.833C118.834 110.833 118.74 111.256 118.834 111.678L121.642 120.756C121.735 121.178 122.016 121.389 122.39 121.389H123.233H123.607H124.45C124.824 121.389 125.105 121.178 125.199 120.756L128.007 111.678C128.1 111.256 128.007 110.833 127.539 110.833H126.322C125.947 110.833 125.667 111.044 125.573 111.467L123.42 118.426L121.267 111.467C121.174 111.044 120.893 110.833 120.518 110.833H119.302ZM138.022 110.833C137.554 110.833 137.46 111.256 137.554 111.678L140.362 120.756C140.456 121.178 140.736 121.389 141.111 121.389H141.953H142.328H143.17C143.545 121.389 143.825 121.178 143.919 120.756L146.727 111.678C146.821 111.256 146.727 110.833 146.259 110.833H145.042C144.668 110.833 144.387 111.044 144.293 111.467L142.14 118.426L139.988 111.467C139.894 111.044 139.613 110.833 139.239 110.833H138.022ZM100.581 100.278C100.113 100.278 100.02 100.7 100.113 101.122L102.921 110.2C103.015 110.622 103.296 110.833 103.67 110.833H104.512H104.887H105.729C106.104 110.833 106.385 110.622 106.478 110.2L109.286 101.122C109.38 100.7 109.286 100.278 108.818 100.278H107.601C107.227 100.278 106.946 100.489 106.853 100.911L104.7 107.871L102.547 100.911C102.453 100.489 102.172 100.278 101.798 100.278H100.581ZM91.221 110.833C90.753 110.833 90.6594 111.256 90.753 111.678L93.5611 120.756C93.6547 121.178 93.9355 121.389 94.3099 121.389H95.1523H95.5267H96.3691C96.7435 121.389 97.0243 121.178 97.1179 120.756L99.926 111.678C100.02 111.256 99.926 110.833 99.458 110.833H98.2412C97.8668 110.833 97.5859 111.044 97.4923 111.467L95.3395 118.426L93.1867 111.467C93.0931 111.044 92.8123 110.833 92.4378 110.833H91.221ZM81.8608 121.389C81.3928 121.389 81.2992 121.811 81.3928 122.233L84.2009 131.311C84.2945 131.733 84.5753 131.944 84.9497 131.944H85.7921H86.1665H87.0089C87.3833 131.944 87.6641 131.733 87.7577 131.311L90.5658 122.233C90.6594 121.811 90.5658 121.389 90.0978 121.389H88.881C88.5066 121.389 88.2258 121.6 88.1322 122.022L85.9793 128.982L83.8265 122.022C83.7329 121.6 83.4521 121.389 83.0776 121.389H81.8608ZM72.5006 131.944C72.0326 131.944 71.939 132.367 72.0326 132.789L74.8407 141.867C74.9343 142.289 75.2151 142.5 75.5895 142.5H76.4319H76.8063H77.6487C78.0231 142.5 78.3039 142.289 78.3976 141.867L81.2056 132.789C81.2992 132.367 81.2056 131.944 80.7376 131.944H79.5208C79.1464 131.944 78.8656 132.156 78.772 132.578L76.6191 139.537L74.4663 132.578C74.3727 132.156 74.0919 131.944 73.7175 131.944H72.5006ZM109.941 68.6111C109.473 68.6111 109.38 69.0333 109.473 69.4556L112.281 78.5333C112.375 78.9556 112.656 79.1667 113.03 79.1667H113.873H114.247H115.09C115.464 79.1667 115.745 78.9556 115.838 78.5333L118.646 69.4556C118.74 69.0333 118.646 68.6111 118.178 68.6111H116.962C116.587 68.6111 116.306 68.8222 116.213 69.2444L114.06 76.2041L111.907 69.2444C111.813 68.8222 111.533 68.6111 111.158 68.6111H109.941ZM156.742 89.7222C156.274 89.7222 156.181 90.1444 156.274 90.5667L159.082 99.6444C159.176 100.067 159.457 100.278 159.831 100.278H160.674H161.048H161.89C162.265 100.278 162.546 100.067 162.639 99.6444L165.447 90.5667C165.541 90.1444 165.447 89.7222 164.979 89.7222H163.763C163.388 89.7222 163.107 89.9333 163.014 90.3556L160.861 97.3152L158.708 90.3556C158.614 89.9333 158.334 89.7222 157.959 89.7222H156.742ZM147.382 100.278C146.914 100.278 146.821 100.7 146.914 101.122L149.722 110.2C149.816 110.622 150.097 110.833 150.471 110.833H151.313H151.688H152.53C152.905 110.833 153.186 110.622 153.279 110.2L156.087 101.122C156.181 100.7 156.087 100.278 155.619 100.278H154.402C154.028 100.278 153.747 100.489 153.654 100.911L151.501 107.871L149.348 100.911C149.254 100.489 148.973 100.278 148.599 100.278H147.382Z" fill="white"/>
</svg>
