<svg width="434" height="190" viewBox="0 0 434 190" fill="none" xmlns="http://www.w3.org/2000/svg">
<rect width="434" height="190" fill="black"/>
<path fill-rule="evenodd" clip-rule="evenodd" d="M209.359 60.3378C206.202 60.3378 203.676 57.4622 203.676 53.8676C203.676 50.273 206.202 47.5 209.359 47.5C212.517 47.5 214.953 50.273 214.953 53.8676C214.953 57.4622 212.517 60.3378 209.359 60.3378ZM211.524 52.6351C212.066 52.6351 212.607 52.0189 212.607 51.3C212.607 50.6838 212.066 50.0676 211.524 50.0676C210.893 50.0676 210.352 50.6838 210.352 51.3C210.352 52.0189 210.893 52.6351 211.524 52.6351ZM191.317 80.8784C188.159 80.8784 185.633 78.0027 185.633 74.4081C185.633 70.8135 188.159 68.0405 191.317 68.0405C194.474 68.0405 196.91 70.8135 196.91 74.4081C196.91 78.0027 194.474 80.8784 191.317 80.8784ZM193.482 73.1757C194.023 73.1757 194.564 72.5595 194.564 71.8405C194.564 71.2243 194.023 70.6081 193.482 70.6081C192.85 70.6081 192.309 71.2243 192.309 71.8405C192.309 72.5595 192.85 73.1757 193.482 73.1757ZM182.295 91.1486C179.138 91.1486 176.612 88.273 176.612 84.6784C176.612 81.0838 179.138 78.3108 182.295 78.3108C185.453 78.3108 187.889 81.0838 187.889 84.6784C187.889 88.273 185.453 91.1486 182.295 91.1486ZM184.461 83.4459C185.002 83.4459 185.543 82.8297 185.543 82.1108C185.543 81.4946 185.002 80.8784 184.461 80.8784C183.829 80.8784 183.288 81.4946 183.288 82.1108C183.288 82.8297 183.829 83.4459 184.461 83.4459ZM167.591 94.9487C167.591 97.0688 168.469 98.9389 169.838 100.116C168.469 101.264 167.591 103.099 167.591 105.219C167.591 108.814 170.117 111.689 173.274 111.689C176.432 111.689 178.867 108.814 178.867 105.219C178.867 103.099 178.02 101.264 176.677 100.116C178.02 98.9389 178.867 97.0688 178.867 94.9487C178.867 91.3541 176.432 88.5811 173.274 88.5811C170.117 88.5811 167.591 91.3541 167.591 94.9487ZM175.439 93.7162C175.98 93.7162 176.522 93.1 176.522 92.3811C176.522 91.7649 175.98 91.1486 175.439 91.1486C174.808 91.1486 174.266 91.7649 174.266 92.3811C174.266 93.1 174.808 93.7162 175.439 93.7162ZM175.439 103.986C175.98 103.986 176.522 103.37 176.522 102.651C176.522 102.035 175.98 101.419 175.439 101.419C174.808 101.419 174.266 102.035 174.266 102.651C174.266 103.37 174.808 103.986 175.439 103.986ZM200.338 70.6081C197.181 70.6081 194.655 67.7324 194.655 64.1378C194.655 60.5432 197.181 57.7703 200.338 57.7703C203.496 57.7703 205.931 60.5432 205.931 64.1378C205.931 67.7324 203.496 70.6081 200.338 70.6081ZM202.503 62.9054C203.044 62.9054 203.586 62.2892 203.586 61.5703C203.586 60.9541 203.044 60.3378 202.503 60.3378C201.872 60.3378 201.33 60.9541 201.33 61.5703C201.33 62.2892 201.872 62.9054 202.503 62.9054ZM182.295 121.959C179.138 121.959 176.612 119.084 176.612 115.489C176.612 111.895 179.138 109.122 182.295 109.122C184.158 109.122 185.769 110.086 186.778 111.615C187.812 110.086 189.454 109.122 191.317 109.122C194.474 109.122 196.91 111.895 196.91 115.489C196.91 119.084 194.474 121.959 191.317 121.959C189.454 121.959 187.812 120.959 186.778 119.401C185.769 120.959 184.158 121.959 182.295 121.959ZM184.461 114.257C185.002 114.257 185.543 113.641 185.543 112.922C185.543 112.305 185.002 111.689 184.461 111.689C183.829 111.689 183.288 112.305 183.288 112.922C183.288 113.641 183.829 114.257 184.461 114.257ZM193.482 114.257C194.023 114.257 194.564 113.641 194.564 112.922C194.564 112.305 194.023 111.689 193.482 111.689C192.85 111.689 192.309 112.305 192.309 112.922C192.309 113.641 192.85 114.257 193.482 114.257ZM200.338 111.689C197.181 111.689 194.655 108.814 194.655 105.219C194.655 101.624 197.181 98.8514 200.338 98.8514C203.496 98.8514 205.931 101.624 205.931 105.219C205.931 108.814 203.496 111.689 200.338 111.689ZM202.503 103.986C203.044 103.986 203.586 103.37 203.586 102.651C203.586 102.035 203.044 101.419 202.503 101.419C201.872 101.419 201.33 102.035 201.33 102.651C201.33 103.37 201.872 103.986 202.503 103.986ZM217.173 84.6784C217.173 88.273 219.699 91.1486 222.856 91.1486C226.014 91.1486 228.45 88.273 228.45 84.6784C228.45 81.0838 226.014 78.3108 222.856 78.3108C219.699 78.3108 217.173 81.0838 217.173 84.6784ZM226.104 82.1108C226.104 82.8297 225.563 83.4459 225.021 83.4459C224.39 83.4459 223.849 82.8297 223.849 82.1108C223.849 81.4946 224.39 80.8784 225.021 80.8784C225.563 80.8784 226.104 81.4946 226.104 82.1108ZM227.338 119.401C228.373 120.959 230.015 121.959 231.878 121.959C233.74 121.959 235.351 120.959 236.36 119.401C237.394 120.959 239.037 121.959 240.899 121.959C244.056 121.959 246.492 119.084 246.492 115.489C246.492 111.895 244.056 109.122 240.899 109.122C239.037 109.122 237.394 110.086 236.36 111.615C235.351 110.086 233.74 109.122 231.878 109.122C230.015 109.122 228.373 110.086 227.338 111.615C226.33 110.086 224.719 109.122 222.856 109.122C219.699 109.122 217.173 111.895 217.173 115.489C217.173 119.084 219.699 121.959 222.856 121.959C224.719 121.959 226.33 120.959 227.338 119.401ZM235.125 112.922C235.125 113.641 234.584 114.257 234.043 114.257C233.411 114.257 232.87 113.641 232.87 112.922C232.87 112.305 233.411 111.689 234.043 111.689C234.584 111.689 235.125 112.305 235.125 112.922ZM255.506 89.846C254.137 88.6686 253.258 86.7985 253.258 84.6784C253.258 81.0838 255.784 78.3108 258.942 78.3108C260.804 78.3108 262.415 79.2755 263.424 80.8045C264.458 79.2755 266.101 78.3108 267.963 78.3108C271.12 78.3108 273.556 81.0838 273.556 84.6784C273.556 88.273 271.12 91.1486 267.963 91.1486C266.101 91.1486 264.458 90.1482 263.424 88.5899C263.117 89.0645 262.753 89.4874 262.344 89.846C263.687 90.9941 264.535 92.8285 264.535 94.9486C264.535 98.5432 262.099 101.419 258.942 101.419C255.784 101.419 253.258 98.5432 253.258 94.9486C253.258 92.8285 254.137 90.9941 255.506 89.846ZM262.189 82.1108C262.189 82.8297 261.648 83.4459 261.107 83.4459C260.475 83.4459 259.934 82.8297 259.934 82.1108C259.934 81.4946 260.475 80.8784 261.107 80.8784C261.648 80.8784 262.189 81.4946 262.189 82.1108ZM226.194 74.4081C226.194 78.0027 228.72 80.8784 231.878 80.8784C233.74 80.8784 235.351 79.8779 236.36 78.3197C237.394 79.8779 239.037 80.8784 240.899 80.8784C242.761 80.8784 244.373 79.8779 245.381 78.3197C246.415 79.8779 248.058 80.8784 249.92 80.8784C253.078 80.8784 255.513 78.0027 255.513 74.4081C255.513 70.8135 253.078 68.0405 249.92 68.0405C248.058 68.0405 246.415 69.0052 245.381 70.5342C244.373 69.0052 242.761 68.0405 240.899 68.0405C239.037 68.0405 237.394 69.0052 236.36 70.5342C235.351 69.0052 233.74 68.0405 231.878 68.0405C228.72 68.0405 226.194 70.8135 226.194 74.4081ZM235.125 71.8405C235.125 72.5594 234.584 73.1757 234.043 73.1757C233.411 73.1757 232.87 72.5594 232.87 71.8405C232.87 71.2243 233.411 70.6081 234.043 70.6081C234.584 70.6081 235.125 71.2243 235.125 71.8405ZM244.147 71.8405C244.147 72.5594 243.605 73.1757 243.064 73.1757C242.433 73.1757 241.891 72.5594 241.891 71.8405C241.891 71.2243 242.433 70.6081 243.064 70.6081C243.605 70.6081 244.147 71.2243 244.147 71.8405ZM208.152 105.219C208.152 108.814 210.678 111.689 213.835 111.689C216.992 111.689 219.428 108.814 219.428 105.219C219.428 103.099 218.581 101.264 217.238 100.116C218.581 98.9389 219.428 97.0688 219.428 94.9486C219.428 91.354 216.992 88.5811 213.835 88.5811C210.678 88.5811 208.152 91.354 208.152 94.9486C208.152 97.0688 209.03 98.9389 210.399 100.116C209.03 101.264 208.152 103.099 208.152 105.219ZM217.083 102.651C217.083 103.37 216.541 103.986 216 103.986C215.369 103.986 214.827 103.37 214.827 102.651C214.827 102.035 215.369 101.419 216 101.419C216.541 101.419 217.083 102.035 217.083 102.651ZM217.083 92.3811C217.083 93.1 216.541 93.7162 216 93.7162C215.369 93.7162 214.827 93.1 214.827 92.3811C214.827 91.7649 215.369 91.1486 216 91.1486C216.541 91.1486 217.083 91.7649 217.083 92.3811ZM226.104 112.922C226.104 113.641 225.563 114.257 225.021 114.257C224.39 114.257 223.849 113.641 223.849 112.922C223.849 112.305 224.39 111.689 225.021 111.689C225.563 111.689 226.104 112.305 226.104 112.922ZM262.189 92.3811C262.189 93.1 261.648 93.7162 261.107 93.7162C260.475 93.7162 259.934 93.1 259.934 92.3811C259.934 91.7649 260.475 91.1486 261.107 91.1486C261.648 91.1486 262.189 91.7649 262.189 92.3811ZM253.258 115.489C253.258 119.084 255.784 121.959 258.942 121.959C260.804 121.959 262.415 120.959 263.424 119.401C264.458 120.959 266.101 121.959 267.963 121.959C271.12 121.959 273.556 119.084 273.556 115.489C273.556 111.895 271.12 109.122 267.963 109.122C266.101 109.122 264.458 110.086 263.424 111.615C262.415 110.086 260.804 109.122 258.942 109.122C255.784 109.122 253.258 111.895 253.258 115.489ZM262.189 112.922C262.189 113.641 261.648 114.257 261.107 114.257C260.475 114.257 259.934 113.641 259.934 112.922C259.934 112.305 260.475 111.689 261.107 111.689C261.648 111.689 262.189 112.305 262.189 112.922ZM271.211 112.922C271.211 113.641 270.669 114.257 270.128 114.257C269.497 114.257 268.955 113.641 268.955 112.922C268.955 112.305 269.497 111.689 270.128 111.689C270.669 111.689 271.211 112.305 271.211 112.922ZM253.168 71.8405C253.168 72.5594 252.627 73.1757 252.085 73.1757C251.454 73.1757 250.913 72.5594 250.913 71.8405C250.913 71.2243 251.454 70.6081 252.085 70.6081C252.627 70.6081 253.168 71.2243 253.168 71.8405ZM244.237 105.219C244.237 108.814 246.763 111.689 249.92 111.689C253.078 111.689 255.513 108.814 255.513 105.219C255.513 101.624 253.078 98.8513 249.92 98.8513C246.763 98.8513 244.237 101.624 244.237 105.219ZM253.168 102.651C253.168 103.37 252.627 103.986 252.085 103.986C251.454 103.986 250.913 103.37 250.913 102.651C250.913 102.035 251.454 101.419 252.085 101.419C252.627 101.419 253.168 102.035 253.168 102.651ZM244.147 112.922C244.147 113.641 243.605 114.257 243.064 114.257C242.433 114.257 241.891 113.641 241.891 112.922C241.891 112.305 242.433 111.689 243.064 111.689C243.605 111.689 244.147 112.305 244.147 112.922ZM271.301 105.219C271.301 108.814 273.827 111.689 276.984 111.689C280.142 111.689 282.577 108.814 282.577 105.219C282.577 101.624 280.142 98.8513 276.984 98.8513C273.827 98.8513 271.301 101.624 271.301 105.219ZM280.232 102.651C280.232 103.37 279.691 103.986 279.149 103.986C278.518 103.986 277.977 103.37 277.977 102.651C277.977 102.035 278.518 101.419 279.149 101.419C279.691 101.419 280.232 102.035 280.232 102.651ZM271.211 82.1108C271.211 82.8297 270.669 83.4459 270.128 83.4459C269.497 83.4459 268.955 82.8297 268.955 82.1108C268.955 81.4946 269.497 80.8784 270.128 80.8784C270.669 80.8784 271.211 81.4946 271.211 82.1108ZM271.301 74.4081C271.301 78.0027 273.827 80.8784 276.984 80.8784C280.142 80.8784 282.577 78.0027 282.577 74.4081C282.577 70.8135 280.142 68.0405 276.984 68.0405C273.827 68.0405 271.301 70.8135 271.301 74.4081ZM280.232 71.8405C280.232 72.5594 279.691 73.1757 279.149 73.1757C278.518 73.1757 277.977 72.5594 277.977 71.8405C277.977 71.2243 278.518 70.6081 279.149 70.6081C279.691 70.6081 280.232 71.2243 280.232 71.8405ZM341.702 84.6784C341.702 88.273 344.228 91.1486 347.385 91.1486C350.543 91.1486 352.979 88.273 352.979 84.6784C352.979 81.0838 350.543 78.3108 347.385 78.3108C344.228 78.3108 341.702 81.0838 341.702 84.6784ZM350.633 82.1108C350.633 82.8297 350.092 83.4459 349.551 83.4459C348.919 83.4459 348.378 82.8297 348.378 82.1108C348.378 81.4946 348.919 80.8784 349.551 80.8784C350.092 80.8784 350.633 81.4946 350.633 82.1108ZM332.681 94.9486C332.681 98.5432 335.207 101.419 338.364 101.419C341.522 101.419 343.957 98.5432 343.957 94.9486C343.957 91.354 341.522 88.5811 338.364 88.5811C335.207 88.5811 332.681 91.354 332.681 94.9486ZM341.612 92.3811C341.612 93.1 341.071 93.7162 340.529 93.7162C339.898 93.7162 339.357 93.1 339.357 92.3811C339.357 91.7649 339.898 91.1486 340.529 91.1486C341.071 91.1486 341.612 91.7649 341.612 92.3811ZM323.659 105.219C323.659 108.814 326.185 111.689 329.343 111.689C332.5 111.689 334.936 108.814 334.936 105.219C334.936 101.624 332.5 98.8513 329.343 98.8513C326.185 98.8513 323.659 101.624 323.659 105.219ZM332.591 102.651C332.591 103.37 332.049 103.986 331.508 103.986C330.876 103.986 330.335 103.37 330.335 102.651C330.335 102.035 330.876 101.419 331.508 101.419C332.049 101.419 332.591 102.035 332.591 102.651ZM296.595 105.219C296.595 108.814 299.121 111.689 302.279 111.689C305.436 111.689 307.872 108.814 307.872 105.219C307.872 101.624 305.436 98.8513 302.279 98.8513C299.121 98.8513 296.595 101.624 296.595 105.219ZM305.527 102.651C305.527 103.37 304.985 103.986 304.444 103.986C303.813 103.986 303.271 103.37 303.271 102.651C303.271 102.035 303.813 101.419 304.444 101.419C304.985 101.419 305.527 102.035 305.527 102.651ZM305.617 94.9486C305.617 98.5432 308.143 101.419 311.3 101.419C314.458 101.419 316.893 98.5432 316.893 94.9486C316.893 91.354 314.458 88.5811 311.3 88.5811C308.143 88.5811 305.617 91.354 305.617 94.9486ZM314.548 92.3811C314.548 93.1 314.007 93.7162 313.465 93.7162C312.834 93.7162 312.293 93.1 312.293 92.3811C312.293 91.7649 312.834 91.1486 313.465 91.1486C314.007 91.1486 314.548 91.7649 314.548 92.3811ZM314.638 84.6784C314.638 88.273 317.164 91.1486 320.322 91.1486C323.479 91.1486 325.915 88.273 325.915 84.6784C325.915 81.0838 323.479 78.3108 320.322 78.3108C317.164 78.3108 314.638 81.0838 314.638 84.6784ZM323.569 82.1108C323.569 82.8297 323.028 83.4459 322.487 83.4459C321.855 83.4459 321.314 82.8297 321.314 82.1108C321.314 81.4946 321.855 80.8784 322.487 80.8784C323.028 80.8784 323.569 81.4946 323.569 82.1108ZM315.782 119.401C316.817 120.959 318.459 121.959 320.322 121.959C323.479 121.959 325.915 119.084 325.915 115.489C325.915 111.895 323.479 109.122 320.322 109.122C318.459 109.122 316.817 110.086 315.782 111.615C314.774 110.086 313.163 109.122 311.3 109.122C308.143 109.122 305.617 111.895 305.617 115.489C305.617 117.609 306.496 119.479 307.864 120.657C306.496 121.805 305.617 123.639 305.617 125.759C305.617 129.354 308.143 132.23 311.3 132.23C314.458 132.23 316.893 129.354 316.893 125.759C316.893 123.639 316.046 121.805 314.703 120.657C315.112 120.298 315.475 119.875 315.782 119.401ZM323.569 112.922C323.569 113.641 323.028 114.257 322.487 114.257C321.855 114.257 321.314 113.641 321.314 112.922C321.314 112.305 321.855 111.689 322.487 111.689C323.028 111.689 323.569 112.305 323.569 112.922ZM306.761 78.3196C307.795 79.8779 309.438 80.8784 311.3 80.8784C314.458 80.8784 316.893 78.0027 316.893 74.4081C316.893 70.8135 314.458 68.0405 311.3 68.0405C309.438 68.0405 307.795 69.0052 306.761 70.5342C305.753 69.0052 304.141 68.0405 302.279 68.0405C299.121 68.0405 296.595 70.8135 296.595 74.4081C296.595 78.0027 299.121 80.8784 302.279 80.8784C304.141 80.8784 305.753 79.8779 306.761 78.3196ZM314.548 71.8405C314.548 72.5594 314.007 73.1757 313.465 73.1757C312.834 73.1757 312.293 72.5594 312.293 71.8405C312.293 71.2243 312.834 70.6081 313.465 70.6081C314.007 70.6081 314.548 71.2243 314.548 71.8405ZM305.527 71.8405C305.527 72.5594 304.985 73.1757 304.444 73.1757C303.813 73.1757 303.271 72.5594 303.271 71.8405C303.271 71.2243 303.813 70.6081 304.444 70.6081C304.985 70.6081 305.527 71.2243 305.527 71.8405ZM287.574 84.6784C287.574 88.273 290.1 91.1486 293.258 91.1486C296.415 91.1486 298.851 88.273 298.851 84.6784C298.851 81.0838 296.415 78.3108 293.258 78.3108C290.1 78.3108 287.574 81.0838 287.574 84.6784ZM296.505 82.1108C296.505 82.8297 295.964 83.4459 295.423 83.4459C294.791 83.4459 294.25 82.8297 294.25 82.1108C294.25 81.4946 294.791 80.8784 295.423 80.8784C295.964 80.8784 296.505 81.4946 296.505 82.1108ZM350.723 74.4081C350.723 78.0027 353.249 80.8784 356.407 80.8784C359.564 80.8784 362 78.0027 362 74.4081C362 70.8135 359.564 68.0405 356.407 68.0405C353.249 68.0405 350.723 70.8135 350.723 74.4081ZM359.654 71.8405C359.654 72.5594 359.113 73.1757 358.572 73.1757C357.94 73.1757 357.399 72.5594 357.399 71.8405C357.399 71.2243 357.94 70.6081 358.572 70.6081C359.113 70.6081 359.654 71.2243 359.654 71.8405ZM314.548 123.192C314.548 123.911 314.007 124.527 313.465 124.527C312.834 124.527 312.293 123.911 312.293 123.192C312.293 122.576 312.834 121.959 313.465 121.959C314.007 121.959 314.548 122.576 314.548 123.192ZM297.74 139.941C298.774 141.5 300.417 142.5 302.279 142.5C305.436 142.5 307.872 139.624 307.872 136.03C307.872 132.435 305.436 129.662 302.279 129.662C300.417 129.662 298.774 130.627 297.74 132.156C296.731 130.627 295.12 129.662 293.258 129.662C290.1 129.662 287.574 132.435 287.574 136.03C287.574 139.624 290.1 142.5 293.258 142.5C295.12 142.5 296.731 141.5 297.74 139.941ZM305.527 133.462C305.527 134.181 304.985 134.797 304.444 134.797C303.813 134.797 303.271 134.181 303.271 133.462C303.271 132.846 303.813 132.23 304.444 132.23C304.985 132.23 305.527 132.846 305.527 133.462ZM296.505 133.462C296.505 134.181 295.964 134.797 295.423 134.797C294.791 134.797 294.25 134.181 294.25 133.462C294.25 132.846 294.791 132.23 295.423 132.23C295.964 132.23 296.505 132.846 296.505 133.462ZM278.553 125.759C278.553 129.354 281.079 132.23 284.236 132.23C287.394 132.23 289.829 129.354 289.829 125.759C289.829 122.165 287.394 119.392 284.236 119.392C281.079 119.392 278.553 122.165 278.553 125.759ZM287.484 123.192C287.484 123.911 286.943 124.527 286.401 124.527C285.77 124.527 285.229 123.911 285.229 123.192C285.229 122.576 285.77 121.959 286.401 121.959C286.943 121.959 287.484 122.576 287.484 123.192ZM314.548 112.922C314.548 113.641 314.007 114.257 313.465 114.257C312.834 114.257 312.293 113.641 312.293 112.922C312.293 112.305 312.834 111.689 313.465 111.689C314.007 111.689 314.548 112.305 314.548 112.922ZM117.107 84.6783C117.107 88.2729 119.633 91.1486 122.79 91.1486C125.947 91.1486 128.383 88.2729 128.383 84.6783C128.383 81.0838 125.947 78.3108 122.79 78.3108C119.633 78.3108 117.107 81.0838 117.107 84.6783ZM126.038 82.1108C126.038 82.8297 125.496 83.4459 124.955 83.4459C124.324 83.4459 123.782 82.8297 123.782 82.1108C123.782 81.4946 124.324 80.8783 124.955 80.8783C125.496 80.8783 126.038 81.4946 126.038 82.1108ZM127.272 119.401C128.306 120.959 129.949 121.959 131.811 121.959C133.674 121.959 135.285 120.959 136.293 119.401C137.328 120.959 138.97 121.959 140.833 121.959C143.99 121.959 146.426 119.084 146.426 115.489C146.426 111.895 143.99 109.122 140.833 109.122C138.97 109.122 137.328 110.086 136.293 111.615C135.285 110.086 133.674 109.122 131.811 109.122C129.949 109.122 128.306 110.086 127.272 111.615C126.264 110.086 124.652 109.122 122.79 109.122C119.633 109.122 117.107 111.895 117.107 115.489C117.107 119.084 119.633 121.959 122.79 121.959C124.652 121.959 126.264 120.959 127.272 119.401ZM135.059 112.922C135.059 113.641 134.518 114.257 133.976 114.257C133.345 114.257 132.804 113.641 132.804 112.922C132.804 112.305 133.345 111.689 133.976 111.689C134.518 111.689 135.059 112.305 135.059 112.922ZM162.278 89.846C163.621 90.9941 164.468 92.8284 164.468 94.9486C164.468 98.5432 162.033 101.419 158.875 101.419C155.718 101.419 153.192 98.5432 153.192 94.9486C153.192 92.8284 154.071 90.9941 155.439 89.846C154.071 88.6686 153.192 86.7985 153.192 84.6783C153.192 81.0838 155.718 78.3108 158.875 78.3108C162.033 78.3108 164.468 81.0838 164.468 84.6783C164.468 86.7985 163.621 88.6686 162.278 89.846ZM162.123 82.1108C162.123 82.8297 161.582 83.4459 161.04 83.4459C160.409 83.4459 159.868 82.8297 159.868 82.1108C159.868 81.4946 160.409 80.8783 161.04 80.8783C161.582 80.8783 162.123 81.4946 162.123 82.1108ZM126.128 74.4081C126.128 78.0027 128.654 80.8783 131.811 80.8783C133.674 80.8783 135.285 79.8779 136.293 78.3196C137.328 79.8779 138.97 80.8783 140.833 80.8783C142.695 80.8783 144.306 79.8779 145.315 78.3196C146.349 79.8779 147.992 80.8783 149.854 80.8783C153.011 80.8783 155.447 78.0027 155.447 74.4081C155.447 70.8135 153.011 68.0405 149.854 68.0405C147.992 68.0405 146.349 69.0052 145.315 70.5342C144.306 69.0052 142.695 68.0405 140.833 68.0405C138.97 68.0405 137.328 69.0052 136.293 70.5342C135.285 69.0052 133.674 68.0405 131.811 68.0405C128.654 68.0405 126.128 70.8135 126.128 74.4081ZM135.059 71.8405C135.059 72.5594 134.518 73.1756 133.976 73.1756C133.345 73.1756 132.804 72.5594 132.804 71.8405C132.804 71.2243 133.345 70.6081 133.976 70.6081C134.518 70.6081 135.059 71.2243 135.059 71.8405ZM144.08 71.8405C144.08 72.5594 143.539 73.1756 142.998 73.1756C142.366 73.1756 141.825 72.5594 141.825 71.8405C141.825 71.2243 142.366 70.6081 142.998 70.6081C143.539 70.6081 144.08 71.2243 144.08 71.8405ZM153.102 71.8405C153.102 72.5594 152.56 73.1756 152.019 73.1756C151.388 73.1756 150.846 72.5594 150.846 71.8405C150.846 71.2243 151.388 70.6081 152.019 70.6081C152.56 70.6081 153.102 71.2243 153.102 71.8405ZM109.229 109.13C110.264 110.689 111.906 111.689 113.769 111.689C116.926 111.689 119.362 108.813 119.362 105.219C119.362 103.099 118.515 101.264 117.171 100.116C118.515 98.9389 119.362 97.0688 119.362 94.9486C119.362 91.354 116.926 88.5811 113.769 88.5811C110.611 88.5811 108.085 91.354 108.085 94.9486C108.085 97.0688 108.964 98.9389 110.333 100.116C109.916 100.466 109.544 100.879 109.229 101.345C108.221 99.816 106.61 98.8513 104.747 98.8513C101.59 98.8513 99.0639 101.624 99.0639 105.219C99.0639 108.813 101.59 111.689 104.747 111.689C106.61 111.689 108.221 110.689 109.229 109.13ZM117.016 102.651C117.016 103.37 116.475 103.986 115.934 103.986C115.302 103.986 114.761 103.37 114.761 102.651C114.761 102.035 115.302 101.419 115.934 101.419C116.475 101.419 117.016 102.035 117.016 102.651ZM117.016 92.381C117.016 93.1 116.475 93.7162 115.934 93.7162C115.302 93.7162 114.761 93.1 114.761 92.381C114.761 91.7648 115.302 91.1486 115.934 91.1486C116.475 91.1486 117.016 91.7648 117.016 92.381ZM126.038 112.922C126.038 113.641 125.496 114.257 124.955 114.257C124.324 114.257 123.782 113.641 123.782 112.922C123.782 112.305 124.324 111.689 124.955 111.689C125.496 111.689 126.038 112.305 126.038 112.922ZM144.08 112.922C144.08 113.641 143.539 114.257 142.998 114.257C142.366 114.257 141.825 113.641 141.825 112.922C141.825 112.305 142.366 111.689 142.998 111.689C143.539 111.689 144.08 112.305 144.08 112.922ZM107.995 102.651C107.995 103.37 107.454 103.986 106.912 103.986C106.281 103.986 105.74 103.37 105.74 102.651C105.74 102.035 106.281 101.419 106.912 101.419C107.454 101.419 107.995 102.035 107.995 102.651ZM90.0426 115.489C90.0426 119.084 92.5686 121.959 95.7261 121.959C98.8835 121.959 101.319 119.084 101.319 115.489C101.319 111.895 98.8835 109.122 95.7261 109.122C92.5686 109.122 90.0426 111.895 90.0426 115.489ZM98.9737 112.922C98.9737 113.641 98.4325 114.257 97.8912 114.257C97.2597 114.257 96.7184 113.641 96.7184 112.922C96.7184 112.305 97.2597 111.689 97.8912 111.689C98.4325 111.689 98.9737 112.305 98.9737 112.922ZM81.0213 125.759C81.0213 129.354 83.5473 132.23 86.7047 132.23C89.8622 132.23 92.298 129.354 92.298 125.759C92.298 122.165 89.8622 119.392 86.7047 119.392C83.5473 119.392 81.0213 122.165 81.0213 125.759ZM89.9524 123.192C89.9524 123.911 89.4111 124.527 88.8699 124.527C88.2384 124.527 87.6971 123.911 87.6971 123.192C87.6971 122.576 88.2384 121.959 88.8699 121.959C89.4111 121.959 89.9524 122.576 89.9524 123.192ZM72 136.03C72 139.624 74.526 142.5 77.6834 142.5C80.8409 142.5 83.2766 139.624 83.2766 136.03C83.2766 132.435 80.8409 129.662 77.6834 129.662C74.526 129.662 72 132.435 72 136.03ZM80.9311 133.462C80.9311 134.181 80.3898 134.797 79.8485 134.797C79.2171 134.797 78.6758 134.181 78.6758 133.462C78.6758 132.846 79.2171 132.23 79.8485 132.23C80.3898 132.23 80.9311 132.846 80.9311 133.462ZM108.085 74.4081C108.085 78.0027 110.611 80.8783 113.769 80.8783C116.926 80.8783 119.362 78.0027 119.362 74.4081C119.362 70.8135 116.926 68.0405 113.769 68.0405C110.611 68.0405 108.085 70.8135 108.085 74.4081ZM117.016 71.8405C117.016 72.5594 116.475 73.1756 115.934 73.1756C115.302 73.1756 114.761 72.5594 114.761 71.8405C114.761 71.2243 115.302 70.6081 115.934 70.6081C116.475 70.6081 117.016 71.2243 117.016 71.8405ZM162.123 92.381C162.123 93.1 161.582 93.7162 161.04 93.7162C160.409 93.7162 159.868 93.1 159.868 92.381C159.868 91.7648 160.409 91.1486 161.04 91.1486C161.582 91.1486 162.123 91.7648 162.123 92.381ZM144.171 105.219C144.171 108.813 146.697 111.689 149.854 111.689C153.011 111.689 155.447 108.813 155.447 105.219C155.447 101.624 153.011 98.8513 149.854 98.8513C146.697 98.8513 144.171 101.624 144.171 105.219ZM153.102 102.651C153.102 103.37 152.56 103.986 152.019 103.986C151.388 103.986 150.846 103.37 150.846 102.651C150.846 102.035 151.388 101.419 152.019 101.419C152.56 101.419 153.102 102.035 153.102 102.651Z" fill="white"/>
</svg>
