<svg width="316" height="316" viewBox="0 0 316 316" fill="none" xmlns="http://www.w3.org/2000/svg">
<g clip-path="url(#clip0_65_93768)">
<path d="M158 65.0584C175.11 65.0584 188.981 51.188 188.981 34.078C188.981 16.968 175.11 3.09766 158 3.09766C140.89 3.09766 127.02 16.968 127.02 34.078C127.02 51.188 140.89 65.0584 158 65.0584Z" stroke="black" stroke-width="7.37333" stroke-miterlimit="10"/>
<path d="M127.02 34.0781H188.98" stroke="black" stroke-width="7.37333" stroke-miterlimit="10"/>
<path d="M158 65.0584V3.09766" stroke="black" stroke-width="7.37333" stroke-miterlimit="10"/>
<path d="M158 127.019C175.11 127.019 188.981 113.149 188.981 96.039C188.981 78.929 175.11 65.0586 158 65.0586C140.89 65.0586 127.02 78.929 127.02 96.039C127.02 113.149 140.89 127.019 158 127.019Z" stroke="black" stroke-width="7.37333" stroke-miterlimit="10"/>
<path d="M127.02 96.0391H188.98" stroke="black" stroke-width="7.37333" stroke-miterlimit="10"/>
<path d="M158 127.019V65.0586" stroke="black" stroke-width="7.37333" stroke-miterlimit="10"/>
<path d="M158 188.98C175.11 188.98 188.981 175.11 188.981 158C188.981 140.89 175.11 127.02 158 127.02C140.89 127.02 127.02 140.89 127.02 158C127.02 175.11 140.89 188.98 158 188.98Z" stroke="black" stroke-width="7.37333" stroke-miterlimit="10"/>
<path d="M127.02 158H188.98" stroke="black" stroke-width="7.37333" stroke-miterlimit="10"/>
<path d="M158 188.98V127.02" stroke="black" stroke-width="7.37333" stroke-miterlimit="10"/>
<path d="M158 250.941C175.11 250.941 188.981 237.071 188.981 219.961C188.981 202.851 175.11 188.98 158 188.98C140.89 188.98 127.02 202.851 127.02 219.961C127.02 237.071 140.89 250.941 158 250.941Z" stroke="black" stroke-width="7.37333" stroke-miterlimit="10"/>
<path d="M127.02 219.961H188.981" stroke="black" stroke-width="7.37333" stroke-miterlimit="10"/>
<path d="M158 250.941V188.98" stroke="black" stroke-width="7.37333" stroke-miterlimit="10"/>
<path d="M158 312.902C175.11 312.902 188.981 299.032 188.981 281.922C188.981 264.812 175.11 250.941 158 250.941C140.89 250.941 127.02 264.812 127.02 281.922C127.02 299.032 140.89 312.902 158 312.902Z" stroke="black" stroke-width="7.37333" stroke-miterlimit="10"/>
<path d="M127.02 281.922H188.98" stroke="black" stroke-width="7.37333" stroke-miterlimit="10"/>
<path d="M158 312.902V250.941" stroke="black" stroke-width="7.37333" stroke-miterlimit="10"/>
<path d="M34.078 190.145C51.188 190.145 65.0584 176.275 65.0584 159.165C65.0584 142.055 51.188 128.185 34.078 128.185C16.968 128.185 3.09761 142.055 3.09761 159.165C3.09761 176.275 16.968 190.145 34.078 190.145Z" stroke="black" stroke-width="7.37333" stroke-miterlimit="10"/>
<path d="M34.0782 190.145V128.185" stroke="black" stroke-width="7.37333" stroke-miterlimit="10"/>
<path d="M65.0583 159.165H3.09756" stroke="black" stroke-width="7.37333" stroke-miterlimit="10"/>
<path d="M96.0389 190.145C113.149 190.145 127.019 176.275 127.019 159.165C127.019 142.055 113.149 128.185 96.0389 128.185C78.9289 128.185 65.0585 142.055 65.0585 159.165C65.0585 176.275 78.9289 190.145 96.0389 190.145Z" stroke="black" stroke-width="7.37333" stroke-miterlimit="10"/>
<path d="M96.039 190.145V128.185" stroke="black" stroke-width="7.37333" stroke-miterlimit="10"/>
<path d="M127.019 159.165H65.0583" stroke="black" stroke-width="7.37333" stroke-miterlimit="10"/>
<path d="M96.0389 127.019C113.149 127.019 127.019 113.149 127.019 96.039C127.019 78.929 113.149 65.0586 96.0389 65.0586C78.9289 65.0586 65.0585 78.929 65.0585 96.039C65.0585 113.149 78.9289 127.019 96.0389 127.019Z" stroke="black" stroke-width="7.37333" stroke-miterlimit="10"/>
<path d="M96.039 127.019V65.0586" stroke="black" stroke-width="7.37333" stroke-miterlimit="10"/>
<path d="M127.019 96.0391H65.0583" stroke="black" stroke-width="7.37333" stroke-miterlimit="10"/>
<path d="M96.0389 250.941C113.149 250.941 127.019 237.071 127.019 219.961C127.019 202.851 113.149 188.98 96.0389 188.98C78.9289 188.98 65.0585 202.851 65.0585 219.961C65.0585 237.071 78.9289 250.941 96.0389 250.941Z" stroke="black" stroke-width="7.37333" stroke-miterlimit="10"/>
<path d="M96.039 250.941V188.98" stroke="black" stroke-width="7.37333" stroke-miterlimit="10"/>
<path d="M127.019 219.961H65.0583" stroke="black" stroke-width="7.37333" stroke-miterlimit="10"/>
<path d="M219.961 250.941C237.071 250.941 250.941 237.071 250.941 219.961C250.941 202.851 237.071 188.98 219.961 188.98C202.851 188.98 188.98 202.851 188.98 219.961C188.98 237.071 202.851 250.941 219.961 250.941Z" stroke="black" stroke-width="7.37333" stroke-miterlimit="10"/>
<path d="M219.961 250.941V188.98" stroke="black" stroke-width="7.37333" stroke-miterlimit="10"/>
<path d="M250.941 219.961H188.98" stroke="black" stroke-width="7.37333" stroke-miterlimit="10"/>
<path d="M219.961 127.019C237.071 127.019 250.941 113.149 250.941 96.039C250.941 78.929 237.071 65.0586 219.961 65.0586C202.851 65.0586 188.98 78.929 188.98 96.039C188.98 113.149 202.851 127.019 219.961 127.019Z" stroke="black" stroke-width="7.37333" stroke-miterlimit="10"/>
<path d="M219.961 127.019V65.0586" stroke="black" stroke-width="7.37333" stroke-miterlimit="10"/>
<path d="M250.941 96.0391H188.98" stroke="black" stroke-width="7.37333" stroke-miterlimit="10"/>
<path d="M219.961 190.145C237.071 190.145 250.941 176.275 250.941 159.165C250.941 142.055 237.071 128.185 219.961 128.185C202.851 128.185 188.98 142.055 188.98 159.165C188.98 176.275 202.851 190.145 219.961 190.145Z" stroke="black" stroke-width="7.37333" stroke-miterlimit="10"/>
<path d="M219.961 190.145V128.185" stroke="black" stroke-width="7.37333" stroke-miterlimit="10"/>
<path d="M250.941 159.165H188.98" stroke="black" stroke-width="7.37333" stroke-miterlimit="10"/>
<path d="M281.922 190.145C299.032 190.145 312.902 176.275 312.902 159.165C312.902 142.055 299.032 128.185 281.922 128.185C264.812 128.185 250.942 142.055 250.942 159.165C250.942 176.275 264.812 190.145 281.922 190.145Z" stroke="black" stroke-width="7.37333" stroke-miterlimit="10"/>
<path d="M281.922 190.145V128.185" stroke="black" stroke-width="7.37333" stroke-miterlimit="10"/>
<path d="M312.902 159.165H250.942" stroke="black" stroke-width="7.37333" stroke-miterlimit="10"/>
</g>
<defs>
<clipPath id="clip0_65_93768">
<rect width="316" height="316" fill="white"/>
</clipPath>
</defs>
</svg>
