{
	"asset":{
		"generator":"Khronos glTF Blender I/O v4.3.47",
		"version":"2.0"
	},
	"scene":0,
	"scenes":[
		{
			"name":"Scene",
			"nodes":[
				0
			]
		}
	],
	"nodes":[
		{
			"mesh":0,
			"name":"Mesh_0.001",
			"rotation":[
				0.5,
				0.5,
				-0.5,
				0.4999999701976776
			],
			"scale":[
				55.60044479370117,
				55.60044479370117,
				55.60044479370117
			]
		}
	],
	"materials":[
		{
			"name":"Material_0.001"
		}
	],
	"meshes":[
		{
			"name":"Mesh_0.001",
			"primitives":[
				{
					"attributes":{
						"POSITION":0,
						"NORMAL":1
					},
					"indices":2,
					"material":0
				}
			]
		}
	],
	"accessors":[
		{
			"bufferView":0,
			"componentType":5126,
			"count":11818,
			"max":[
				0.02990012615919113,
				0.004153883550316095,
				0.029892608523368835
			],
			"min":[
				-0.02988513559103012,
				-0.005846116226166487,
				-0.02989262342453003
			],
			"type":"VEC3"
		},
		{
			"bufferView":1,
			"componentType":5126,
			"count":11818,
			"type":"VEC3"
		},
		{
			"bufferView":2,
			"componentType":5123,
			"count":58728,
			"type":"SCALAR"
		}
	],
	"bufferViews":[
		{
			"buffer":0,
			"byteLength":141816,
			"byteOffset":0,
			"target":34962
		},
		{
			"buffer":0,
			"byteLength":141816,
			"byteOffset":141816,
			"target":34962
		},
		{
			"buffer":0,
			"byteLength":117456,
			"byteOffset":283632,
			"target":34963
		}
	],
	"buffers":[
		{
			"byteLength":401088,
			"uri":"smile.bin"
		}
	]
}
