<svg width="129" height="129" viewBox="0 0 129 129" fill="none" xmlns="http://www.w3.org/2000/svg">
<rect x="1.75749" y="1.75749" width="125.485" height="125.485" rx="15.8174" fill="black"/>
<rect x="1.75749" y="1.75749" width="125.485" height="125.485" rx="15.8174" stroke="black" stroke-width="3.51499"/>
<path d="M64.5 21.0244C40.5245 21.0244 21.0215 40.5274 21.0215 64.5029C21.0215 88.4785 40.5245 107.976 64.5 107.976C88.4756 107.976 107.979 88.4731 107.979 64.5029C107.979 40.5328 88.4756 21.0244 64.5 21.0244ZM64.5 102.848C43.3574 102.848 26.1499 85.6509 26.1499 64.5083C26.1499 43.3657 43.3574 26.1528 64.5 26.1528C85.6426 26.1528 102.845 43.355 102.845 64.5029C102.845 85.6509 85.6426 102.842 64.5 102.842V102.848Z" fill="white"/>
<path d="M64.4999 26.1523C43.3573 26.1523 26.1498 43.3545 26.1498 64.5025C26.1498 85.6504 43.352 102.842 64.4999 102.842C85.6478 102.842 102.845 85.645 102.845 64.5025C102.845 43.3599 85.6425 26.1523 64.4999 26.1523ZM76.1705 46.8863C80.4334 46.8863 83.9007 50.3537 83.9007 54.6166C83.9007 58.8795 80.4334 62.3576 76.1705 62.3576C71.9076 62.3576 68.4295 58.8903 68.4295 54.6166C68.4295 50.3429 71.9022 46.8863 76.1705 46.8863ZM52.8347 46.8863C57.0976 46.8863 60.5649 50.3537 60.5649 54.6166C60.5649 58.8795 57.0976 62.3576 52.8347 62.3576C48.5718 62.3576 45.0937 58.8903 45.0937 54.6166C45.0937 50.3429 48.5664 46.8863 52.8347 46.8863ZM64.4999 89.1446C53.7539 89.1446 45.0131 80.4037 45.0131 69.6631H50.1468C50.1468 77.5815 56.5869 84.0162 64.5053 84.0162C72.4237 84.0162 78.8583 77.5815 78.8583 69.6631H83.9921C83.9921 80.4091 75.2513 89.1446 64.5106 89.1446H64.4999Z" fill="black"/>
<path d="M83.9007 54.617C83.9007 58.8906 80.4333 62.3579 76.1704 62.3579C71.9075 62.3579 68.4294 58.8906 68.4294 54.617C68.4294 50.3433 71.9021 46.8867 76.1704 46.8867C80.4387 46.8867 83.9007 50.354 83.9007 54.617Z" fill="white"/>
<path d="M60.5647 54.617C60.5647 58.8906 57.0974 62.3579 52.8345 62.3579C48.5716 62.3579 45.0935 58.8906 45.0935 54.617C45.0935 50.3433 48.5662 46.8867 52.8345 46.8867C57.1028 46.8867 60.5647 50.354 60.5647 54.617Z" fill="white"/>
<path d="M83.9813 69.6631C83.9813 80.4091 75.2404 89.1446 64.4998 89.1446C53.7592 89.1446 45.0129 80.4037 45.0129 69.6631H50.1467C50.1467 77.5815 56.5868 84.0162 64.5052 84.0162C72.4235 84.0162 78.8582 77.5815 78.8582 69.6631H83.992H83.9813Z" fill="white"/>
</svg>
