<svg width="46" height="45" viewBox="0 0 46 45" fill="none" xmlns="http://www.w3.org/2000/svg">
<path d="M23.4614 0C11.0547 0 0.959717 10.0917 0.959717 22.5017C0.959717 34.9117 11.0547 45 23.4614 45C35.8681 45 45.9614 34.9083 45.9614 22.5017C45.9614 10.095 35.8697 0 23.4614 0ZM23.4614 42.3433C12.518 42.3433 3.61472 33.4433 3.61472 22.5017C3.61472 11.56 12.5197 2.655 23.4614 2.655C34.4031 2.655 43.3064 11.5567 43.3064 22.5017C43.3064 33.4467 34.4047 42.3433 23.4614 42.3433Z" fill="white"/>
<path d="M33.5015 17.3857C33.5015 19.5974 31.7081 21.3907 29.5015 21.3907C27.2948 21.3907 25.4965 19.5974 25.4965 17.3857C25.4965 15.1741 27.2931 13.3857 29.5015 13.3857C31.7098 13.3857 33.5015 15.1791 33.5015 17.3857Z" fill="white"/>
<path d="M21.4247 17.3843C21.4247 19.596 19.6314 21.3893 17.4247 21.3893C15.2181 21.3893 13.4197 19.596 13.4197 17.3843C13.4197 15.1726 15.2164 13.3843 17.4247 13.3843C19.6331 13.3843 21.4247 15.1776 21.4247 17.3843Z" fill="white"/>
<path d="M33.5447 25.1713C33.5447 30.7329 29.0197 35.2543 23.4614 35.2543C17.9031 35.2543 13.3764 30.7326 13.3764 25.171H16.0314C16.0314 29.2693 19.3647 32.5976 23.4614 32.5976C27.5581 32.5976 30.8881 29.2676 30.8881 25.171H33.5431L33.5447 25.1713Z" fill="white"/>
</svg>
